<svg width="191" height="30" viewBox="0 0 191 30" fill="none" xmlns="http://www.w3.org/2000/svg">
<path d="M23.2259 16.238L16.561 27.6528L9.89611 16.238H23.2259ZM25.0114 15.2178H8.10339L16.561 29.6719L25.0114 15.2178Z" fill="white"/>
<path d="M34.8137 2.0404L41.4786 13.4552H28.1488L34.8137 2.0404ZM34.8137 0L26.3561 14.454H43.2713L34.8137 0Z" fill="white"/>
<path d="M0 0L7.09143 12.7846L14.8406 0.321025L0 0Z" fill="#4CAF4F"/>
<path d="M16.5612 1.11987L23.9997 13.8332H9.1084L16.5612 1.11987Z" fill="#4CAF4F"/>
<path d="M25.9152 16.6089L33.3608 29.6718H18.1154L25.6838 16.6089H25.9152Z" fill="#4CAF4F"/>
<path d="M27.5271 15.8169L34.8137 28.68L42.2014 15.8169H27.5271Z" fill="#4CAF4F"/>
<path d="M74.2197 2.06348V27.2395H69.6222L58.6691 11.3938H58.4847V27.2395H53.1619V2.06348H57.8332L68.7002 17.8968H68.9215V2.06348H74.2197Z" fill="white"/>
<path d="M87.1243 27.6083C85.182 27.6083 83.5102 27.2149 82.1088 26.4282C80.7156 25.6332 79.642 24.5105 78.888 23.0599C78.134 21.6011 77.757 19.876 77.757 17.8845C77.757 15.9423 78.134 14.2376 78.888 12.7707C79.642 11.3037 80.7033 10.1605 82.0719 9.34092C83.4487 8.52139 85.0632 8.11162 86.9153 8.11162C88.161 8.11162 89.3206 8.31241 90.3942 8.71398C91.476 9.10736 92.4185 9.70152 93.2216 10.4965C94.033 11.2914 94.664 12.2912 95.1147 13.4959C95.5655 14.6925 95.7908 16.0939 95.7908 17.7001V19.1384H79.8469V15.8931H90.8614C90.8614 15.1391 90.6975 14.4712 90.3696 13.8893C90.0418 13.3075 89.587 12.8526 89.0051 12.5248C88.4315 12.1888 87.7635 12.0208 87.0014 12.0208C86.2064 12.0208 85.5016 12.2052 84.887 12.574C84.2805 12.9346 83.8052 13.4222 83.461 14.0368C83.1168 14.6433 82.9406 15.3194 82.9324 16.0652V19.1507C82.9324 20.085 83.1045 20.8922 83.4487 21.5724C83.8011 22.2526 84.2969 22.7772 84.9361 23.1459C85.5754 23.5147 86.3335 23.6991 87.2104 23.6991C87.7922 23.6991 88.3249 23.6172 88.8084 23.4533C89.292 23.2894 89.7058 23.0435 90.05 22.7157C90.3942 22.3879 90.6565 21.9863 90.8368 21.511L95.6802 21.8306C95.4344 22.9943 94.9303 24.0105 94.1682 24.8793C93.4142 25.7398 92.439 26.4118 91.2424 26.8953C90.0541 27.3706 88.6814 27.6083 87.1243 27.6083Z" fill="white"/>
<path d="M103.247 8.35748L106.713 14.9588L110.266 8.35748H115.638L110.167 17.7985L115.785 27.2395H110.438L106.713 20.7119L103.05 27.2395H97.6409L103.247 17.7985L97.8376 8.35748H103.247Z" fill="white"/>
<path d="M126.603 27.6083C124.669 27.6083 123.005 27.1985 121.612 26.379C120.227 25.5513 119.162 24.4039 118.416 22.937C117.679 21.47 117.31 19.7818 117.31 17.8723C117.31 15.9382 117.683 14.2417 118.428 12.783C119.182 11.316 120.252 10.1727 121.637 9.35321C123.022 8.52549 124.669 8.11162 126.579 8.11162C128.226 8.11162 129.668 8.41075 130.906 9.00901C132.143 9.60727 133.123 10.4473 133.844 11.5291C134.565 12.6109 134.962 13.8811 135.036 15.3399H130.094C129.955 14.3974 129.586 13.6394 128.988 13.0657C128.398 12.4838 127.624 12.1929 126.665 12.1929C125.853 12.1929 125.144 12.4142 124.538 12.8567C123.94 13.2911 123.473 13.9262 123.137 14.7621C122.801 15.5981 122.633 16.6102 122.633 17.7985C122.633 19.0032 122.796 20.0276 123.124 20.8717C123.46 21.7159 123.932 22.3592 124.538 22.8017C125.144 23.2443 125.853 23.4656 126.665 23.4656C127.263 23.4656 127.8 23.3426 128.275 23.0968C128.759 22.8509 129.156 22.4944 129.467 22.0273C129.787 21.552 129.996 20.9824 130.094 20.3186H135.036C134.954 21.7609 134.561 23.0312 133.856 24.1294C133.159 25.2194 132.197 26.0717 130.967 26.6863C129.738 27.301 128.283 27.6083 126.603 27.6083Z" fill="white"/>
<path d="M146.994 27.6083C145.052 27.6083 143.38 27.2149 141.979 26.4282C140.585 25.6332 139.512 24.5105 138.758 23.0599C138.004 21.6011 137.627 19.876 137.627 17.8845C137.627 15.9423 138.004 14.2376 138.758 12.7707C139.512 11.3037 140.573 10.1605 141.942 9.34092C143.319 8.52139 144.933 8.11162 146.785 8.11162C148.031 8.11162 149.191 8.31241 150.264 8.71398C151.346 9.10736 152.288 9.70152 153.092 10.4965C153.903 11.2914 154.534 12.2912 154.985 13.4959C155.435 14.6925 155.661 16.0939 155.661 17.7001V19.1384H139.717V15.8931H150.731C150.731 15.1391 150.567 14.4712 150.24 13.8893C149.912 13.3075 149.457 12.8526 148.875 12.5248C148.301 12.1888 147.633 12.0208 146.871 12.0208C146.076 12.0208 145.372 12.2052 144.757 12.574C144.15 12.9346 143.675 13.4222 143.331 14.0368C142.987 14.6433 142.81 15.3194 142.802 16.0652V19.1507C142.802 20.085 142.974 20.8922 143.319 21.5724C143.671 22.2526 144.167 22.7772 144.806 23.1459C145.445 23.5147 146.203 23.6991 147.08 23.6991C147.662 23.6991 148.195 23.6172 148.678 23.4533C149.162 23.2894 149.576 23.0435 149.92 22.7157C150.264 22.3879 150.526 21.9863 150.707 21.511L155.55 21.8306C155.304 22.9943 154.8 24.0105 154.038 24.8793C153.284 25.7398 152.309 26.4118 151.112 26.8953C149.924 27.3706 148.551 27.6083 146.994 27.6083Z" fill="white"/>
<path d="M164.315 16.3233V27.2395H159.078V8.35748H164.069V11.6889H164.29C164.708 10.5907 165.409 9.722 166.393 9.08277C167.376 8.43534 168.568 8.11162 169.97 8.11162C171.281 8.11162 172.424 8.39846 173.4 8.97213C174.375 9.5458 175.133 10.3653 175.674 11.4307C176.215 12.4879 176.485 13.75 176.485 15.217V27.2395H171.248V16.1512C171.256 14.9957 170.961 14.0942 170.363 13.4468C169.765 12.7912 168.941 12.4633 167.892 12.4633C167.187 12.4633 166.565 12.615 166.024 12.9182C165.491 13.2214 165.073 13.664 164.77 14.2458C164.475 14.8195 164.323 15.512 164.315 16.3233Z" fill="white"/>
<path d="M190.656 8.35748V12.2912H179.285V8.35748H190.656ZM181.866 3.83367H187.103V21.4372C187.103 21.9207 187.177 22.2977 187.324 22.5682C187.472 22.8304 187.677 23.0148 187.939 23.1214C188.209 23.2279 188.521 23.2812 188.873 23.2812C189.119 23.2812 189.365 23.2607 189.611 23.2197C189.857 23.1705 190.045 23.1336 190.176 23.1091L191 27.0059C190.738 27.0879 190.369 27.1821 189.894 27.2887C189.418 27.4034 188.841 27.4731 188.16 27.4977C186.898 27.5468 185.792 27.3788 184.841 26.9936C183.899 26.6085 183.165 26.0102 182.641 25.1989C182.116 24.3875 181.858 23.3631 181.866 22.1256V3.83367Z" fill="white"/>
</svg>
