<svg xmlns="http://www.w3.org/2000/svg" width="391" height="407" fill="none"><path fill="#E0E0E0" d="M336.293 393.032c30.214 0 54.707-14.138 54.707-31.578 0-17.439-24.493-31.577-54.707-31.577-30.214 0-54.707 14.138-54.707 31.577 0 17.44 24.493 31.578 54.707 31.578Zm-187.997 13.927a3.923 3.923 0 0 1-3.801-3.139l-.884-4.653a50.317 50.317 0 0 1-5.905-1.453h-.152l-8.192 3.8a4.832 4.832 0 0 1-4.227-.193l-8.131-4.715a3.224 3.224 0 0 1-1.698-2.686 3.227 3.227 0 0 1 1.424-2.841l4.939-3.556a18.085 18.085 0 0 1-1.23-1.869l-10.407-.651a3.727 3.727 0 0 1-3.496-3.708v-6.096a3.73 3.73 0 0 1 3.486-3.719l10.407-.66c.371-.645.782-1.266 1.23-1.859l-4.96-3.526a3.226 3.226 0 0 1-1.424-2.841 3.235 3.235 0 0 1 1.699-2.686l8.13-4.714a4.64 4.64 0 0 1 2.317-.589 4.476 4.476 0 0 1 1.911.396l8.201 3.8h.102a50.702 50.702 0 0 1 5.976-1.463l.884-4.654a3.91 3.91 0 0 1 3.801-3.139h12.002a3.926 3.926 0 0 1 3.801 3.139l.885 4.654a51.89 51.89 0 0 1 5.894 1.442h.153l8.201-3.8a4.494 4.494 0 0 1 1.901-.396 4.654 4.654 0 0 1 2.327.59l8.13 4.714a3.242 3.242 0 0 1 .285 5.527l-4.95 3.556c.45.595.864 1.216 1.24 1.859l10.407.661a3.726 3.726 0 0 1 3.486 3.718v6.096a3.737 3.737 0 0 1-3.486 3.719l-10.407.65a17.906 17.906 0 0 1-1.24 1.869l4.95 3.557a3.24 3.24 0 0 1-.285 5.527l-8.13 4.714a4.768 4.768 0 0 1-2.327.589 4.658 4.658 0 0 1-1.901-.396l-8.201-3.8h-.102a50.73 50.73 0 0 1-5.966 1.473l-.884 4.643a3.922 3.922 0 0 1-3.801 3.15l-11.982-.041Zm6.006-34.219a25.349 25.349 0 0 0-12.47 2.947c-2.794 1.615-4.4 3.678-4.4 5.679 0 2.002 1.606 4.064 4.4 5.68a27.892 27.892 0 0 0 24.95 0c2.795-1.616 4.391-3.678 4.391-5.68 0-2.001-1.596-4.064-4.391-5.679a25.406 25.406 0 0 0-12.48-2.947Zm38.911-139.675-3.404-1.96a9.23 9.23 0 0 0-8.354 0L1.723 334.889c-2.297 1.321-2.297 3.495 0 4.816l3.394 1.961a9.263 9.263 0 0 0 8.364 0l54.596-31.496L90.2 322.931c6.26 3.617 16.515 3.617 22.776 0l37.664-21.742c5.345-3.048 5.345-8.129 0-11.177l-23.772-13.827 66.354-38.294c2.287-1.331 2.287-3.495-.01-4.826Z"/><path fill="#103E13" d="M200.175 57.073 37.567 150.921V242.9a2.652 2.652 0 0 0 .427 1.504 1.146 1.146 0 0 0 .925.549c.233-.005.461-.072.66-.193l164.468-95.007V59.329c0-2.5-1.738-3.495-3.872-2.256Z" opacity=".1"/><path fill="#37474F" d="m116.381 317.526 31.16-18.004c3.211-1.859 4.817-4.287 4.817-6.716v-4.338l-29.33-16.632a6.875 6.875 0 0 1-3.1-5.375v-38.405l-54.402 31.446v38.405a6.833 6.833 0 0 0 3.049 5.364l24.492 14.224c6.474 3.739 16.891 3.739 23.314.031Z"/><path fill="#263238" d="M78.585 304.704v4.318l-9.97-5.751a6.87 6.87 0 0 1-3.1-5.374v-38.395l10.367-5.984c.223 2.631.447 5.354.67 8.006l-7.276 4.206v30.003a6.816 6.816 0 0 0 3.049 5.374l6.26 3.597Z"/><path fill="#455A64" d="M69.276 295.743a6.882 6.882 0 0 0 3.049 5.374l20.732 12.081c6.433 3.708 16.85 3.708 23.273 0l31.17-18.004c6.433-3.708 6.433-9.723 0-13.432l-20.753-12.09a6.83 6.83 0 0 1-3.099-5.375v-29.992L69.276 265.73v30.013Z"/><path fill="#103E13" d="m133.12 273.319-6.312-3.647a6.83 6.83 0 0 1-3.099-5.375v-29.992L69.276 265.73v30.013a6.882 6.882 0 0 0 3.049 5.374l6.21 3.577 54.585-31.375Z" opacity=".15"/><path fill="#37474F" d="M4.436 319.426a8.323 8.323 0 0 0 7.52-.142c26.76-15.444 152.313-87.915 179.072-103.348a8.6 8.6 0 0 0 3.872-6.716V59.308a7.272 7.272 0 0 0-3.641-6.6 7.28 7.28 0 0 0-7.538.169L4.68 156.225a8.594 8.594 0 0 0-3.832 6.716v149.911a8.332 8.332 0 0 0 3.588 6.574Z"/><path fill="#455A64" d="m11.957 319.283 179.071-103.358a8.568 8.568 0 0 0 3.872-6.715V59.308c0-2.479-1.738-3.474-3.872-2.235L11.957 160.421a8.564 8.564 0 0 0-3.872 6.716v149.911c-.01 2.469 1.727 3.465 3.872 2.235Z"/><path fill="#4CAF4F" d="M13.207 298.963V168.915a5.269 5.269 0 0 1 2.378-4.125L187.39 65.628c1.311-.762 2.378-.142 2.378 1.371v130.049a5.275 5.275 0 0 1-2.388 4.135L15.585 300.345c-1.311.752-2.378.142-2.378-1.382Z"/><path fill="#fff" d="M13.207 298.963V168.915a5.269 5.269 0 0 1 2.378-4.125L187.39 65.628c1.311-.762 2.378-.142 2.378 1.371v130.049a5.275 5.275 0 0 1-2.388 4.135L15.585 300.345c-1.311.752-2.378.142-2.378-1.382Z" opacity=".75"/><path fill="#263238" d="m1.946 159.121 7.277 4.196a8.176 8.176 0 0 0-1.149 3.83v149.901c0 2.256 1.535 3.516 3.883 2.235a8.23 8.23 0 0 1-7.52.143 7.486 7.486 0 0 1-3.64-6.096V162.961a8.01 8.01 0 0 1 1.15-3.84Z"/><path fill="#4CAF4F" d="m93.575 261.839 15.824-9.144c.793-.447 1.423-.133 1.423.721a3.052 3.052 0 0 1-1.423 2.357l-15.824 9.144c-.782.457-1.422.132-1.422-.711a3.045 3.045 0 0 1 1.422-2.367Z"/><path fill="#F5F7FA" d="M35.332 240.401c.234-.007.462-.078.66-.203l174.072-100.585a5.51 5.51 0 0 0 2.469-4.257V3.865c0-.925-.386-1.473-1.016-1.473-.36.01-.711.115-1.016.305L36.419 103.24a5.534 5.534 0 0 0-2.47 4.268v130.8c-.01.532.14 1.056.427 1.504a1.177 1.177 0 0 0 .956.589Z"/><path fill="#F5F7FA" d="M31.216 238.694c.294.153 2.388 1.341 3.303 1.87a2.736 2.736 0 0 1-1.017-2.266V116.276l-3.445-2.032v122.093a2.628 2.628 0 0 0 1.159 2.357Z"/><path fill="#E0E0E0" d="M211.497 2.849c.508 0 .579.63.579 1.016v131.481a5.087 5.087 0 0 1-2.236 3.871L35.769 239.802a.9.9 0 0 1-.437.132c-.478 0-.895-.742-.895-1.595V107.477a5.012 5.012 0 0 1 2.236-3.871L210.744 3.093a1.53 1.53 0 0 1 .753-.244Zm0-.904c-.426.011-.84.138-1.2.365L36.216 102.814a5.952 5.952 0 0 0-2.683 4.663v130.831c0 1.351.752 2.51 1.799 2.51a1.76 1.76 0 0 0 .894-.265l174.061-100.584a5.923 5.923 0 0 0 2.704-4.653V3.865c0-1.22-.61-1.92-1.494-1.92Z"/><path fill="#4CAF4F" d="M212.981 3.804v9.012L33.534 116.448l-3.446-2.032v-8.859a5.62 5.62 0 0 1 .813-2.693 5.454 5.454 0 0 1 1.88-1.96L206.854.36a1.907 1.907 0 0 1 1.961-.163c.498.305 2.856 1.646 3.334 1.89a.733.733 0 0 1 .203.142c.081.06.153.132.213.214.07.083.128.175.173.274.063.1.107.21.132.325.039.119.066.241.082.366.021.13.032.263.03.396Z"/><path fill="#103E13" d="M212.981 3.804v9.012L33.534 116.448l-3.446-2.032v-8.859a5.62 5.62 0 0 1 .813-2.693 5.454 5.454 0 0 1 1.88-1.96L206.854.36a1.907 1.907 0 0 1 1.961-.163c.498.305 2.856 1.646 3.334 1.89a.733.733 0 0 1 .203.142c.081.06.153.132.213.214.07.083.128.175.173.274.063.1.107.21.132.325.039.119.066.241.082.366.021.13.032.263.03.396Z" opacity=".15"/><path fill="#4CAF4F" d="M212.98 3.804v9.012L33.533 116.448v-8.9a4.802 4.802 0 0 1 .325-1.676c.03-.094.068-.186.112-.275.105-.251.227-.496.366-.731a5.382 5.382 0 0 1 1.89-1.981L210.287 2.31a1.792 1.792 0 0 1 2.033-.08 1 1 0 0 1 .213.213c.069.083.127.175.173.274.063.1.107.21.132.325.039.119.066.241.081.366.032.13.053.262.061.396Z"/><path fill="#F5F7FA" d="M194.961 14.604a4.45 4.45 0 0 0-1.676 3.556c0 1.433.752 2.154 1.676 1.616a4.442 4.442 0 0 0 1.677-3.556c-.051-1.372-.803-2.154-1.677-1.616Zm5.997-3.494a4.42 4.42 0 0 0-1.677 3.555c0 1.422.752 2.154 1.677 1.616a4.437 4.437 0 0 0 1.687-3.556c0-1.433-.752-2.154-1.687-1.616Zm6.057-3.506a4.428 4.428 0 0 0-1.687 3.556c0 1.432.752 2.154 1.687 1.626a4.455 4.455 0 0 0 1.676-3.557c0-1.432-.752-2.153-1.676-1.625Z"/><path fill="#4CAF4F" d="M210.297 2.31 36.226 102.814a5.546 5.546 0 0 0-1.9 2.032l-3.415-2.032a5.294 5.294 0 0 1 1.87-1.971L206.852.36a1.91 1.91 0 0 1 1.962-.163c.477.295 2.713 1.565 3.282 1.87a1.96 1.96 0 0 0-1.799.243Z"/><path fill="#fff" d="M210.297 2.31 36.226 102.814a5.546 5.546 0 0 0-1.9 2.032l-3.415-2.032a5.294 5.294 0 0 1 1.87-1.971L206.852.36a1.91 1.91 0 0 1 1.962-.163c.477.295 2.713 1.565 3.282 1.87a1.96 1.96 0 0 0-1.799.243Z" opacity=".5"/><path fill="#455A64" d="M77.07 120.756a.242.242 0 0 1-.243-.244v-10.251a.243.243 0 0 1 .336-.225.239.239 0 0 1 .142.225v10.251a.236.236 0 0 1-.142.226.24.24 0 0 1-.092.018Z"/><path fill="#455A64" d="m76.207 119.547.823.823.813-.823v.701l-.813.813-.823-.813v-.701Zm9.533 2.327a.226.226 0 0 1-.213-.122.23.23 0 0 1-.024-.182.232.232 0 0 1 .115-.143l6.748-3.902a.239.239 0 0 1 .187-.024.249.249 0 0 1 .149.116.244.244 0 0 1-.092.325l-6.758 3.901a.201.201 0 0 1-.112.031Z"/><path fill="#455A64" d="m92.061 118.928.305-1.118-1.118-.305.6-.345 1.118.294-.295 1.118-.61.356Zm-7.571 56.804a.219.219 0 0 1-.125-.029.22.22 0 0 1-.088-.093.231.231 0 0 1 .019-.265.231.231 0 0 1 .072-.06l6.748-3.901a.255.255 0 0 1 .335.091.265.265 0 0 1-.09.336l-6.76 3.891a.2.2 0 0 1-.111.03Z"/><path fill="#455A64" d="m90.811 172.786.305-1.118-1.118-.294.6-.356 1.118.305-.295 1.117-.61.346Zm18.182-11.197a.225.225 0 0 1-.119-.031.227.227 0 0 1-.084-.09.221.221 0 0 1 .091-.326l6.748-3.901a.22.22 0 0 1 .184-.028.212.212 0 0 1 .141.119.237.237 0 0 1 .033.087.242.242 0 0 1-.044.177.244.244 0 0 1-.07.062l-6.758 3.901a.24.24 0 0 1-.122.03Z"/><path fill="#455A64" d="m115.324 158.643.305-1.118-1.118-.304.6-.346 1.118.295-.305 1.117-.6.356Zm-4.715-51.105a.22.22 0 0 1-.203-.122.225.225 0 0 1-.029-.18.255.255 0 0 1 .04-.083.244.244 0 0 1 .07-.062l6.758-3.901a.236.236 0 0 1 .182-.024.224.224 0 0 1 .143.115.23.23 0 0 1-.081.325l-6.758 3.902a.289.289 0 0 1-.122.03Z"/><path fill="#455A64" d="m116.9 104.592.304-1.118-1.117-.305.599-.345 1.118.294-.305 1.128-.599.346Zm-6.769 30.033a.242.242 0 0 1-.213-.112.23.23 0 0 1-.031-.091.239.239 0 0 1 .122-.244l6.748-3.902a.244.244 0 0 1 .187-.023.246.246 0 0 1 .057.45l-6.758 3.891a.204.204 0 0 1-.112.031Z"/><path fill="#455A64" d="m110.548 133.202-.295 1.118 1.118.295-.6.345-1.118-.295.295-1.117.6-.346Zm-.854 51.796a.217.217 0 0 1-.119-.032.215.215 0 0 1-.084-.09.21.21 0 0 1-.047-.097.216.216 0 0 1 .003-.107.227.227 0 0 1 .145-.151l6.302-3.648a.247.247 0 0 1 .357.179.237.237 0 0 1-.044.176.244.244 0 0 1-.07.062l-6.311 3.647a.272.272 0 0 1-.132.061Z"/><path fill="#455A64" d="m110.121 183.566-.305 1.117 1.118.305-.6.346-1.118-.305.305-1.118.6-.345Zm-24.269-34.931a.226.226 0 0 1-.12-.031.228.228 0 0 1-.084-.09.235.235 0 0 1 .081-.326l6.76-3.901a.243.243 0 0 1 .306.364.24.24 0 0 1-.073.063l-6.748 3.891-.122.03Z"/><path fill="#455A64" d="m86.278 147.213-.304 1.118 1.118.294-.6.346-1.118-.295.305-1.118.6-.345Zm37.99-30.521a.244.244 0 0 1-.244-.244v-7.813a.244.244 0 0 1 .416-.172.244.244 0 0 1 .072.172v7.813a.245.245 0 0 1-.244.244Z"/><path fill="#455A64" d="m123.455 115.493.813.813.823-.813v.691l-.823.813-.813-.813v-.691Zm-46.384 51.126a.211.211 0 0 1-.122 0 .222.222 0 0 1-.122-.203v-5.751a.24.24 0 0 1 .072-.172.243.243 0 0 1 .264-.053.24.24 0 0 1 .142.225v5.324l46.749-26.985v-3.577a.244.244 0 0 1 .488 0v3.719a.24.24 0 0 1-.122.203l-47.247 27.27a.218.218 0 0 1-.102 0Z"/><path fill="#455A64" d="m77.843 161.59-.813-.813-.823.813v-.691l.823-.823.813.823v.691Zm-.772 31.699a.21.21 0 0 1-.122 0 .226.226 0 0 1-.122-.213v-3.709a.24.24 0 0 1 .072-.172.244.244 0 0 1 .264-.053.224.224 0 0 1 .127.133.233.233 0 0 1 .015.092v3.282l46.749-26.985v-5.629a.244.244 0 1 1 .488 0v5.751a.244.244 0 0 1-.122.203l-47.278 27.269a.207.207 0 0 1-.071.031Z"/><path fill="#455A64" d="m125.091 160.99-.823-.813-.813.813v-.691l.813-.813.823.813v.691Zm-58.874 25.288a.251.251 0 0 1-.122 0 .242.242 0 0 1-.122-.213V159.73a.242.242 0 0 1 .122-.203l2.561-1.483a.242.242 0 0 1 .285.061.244.244 0 0 1-.092.335l-2.429 1.402v25.746l2.683-1.545a.245.245 0 0 1 .301-.015.25.25 0 0 1 .102.183.245.245 0 0 1-.169.249l-3.049 1.757a.26.26 0 0 1-.071.061Z"/><path fill="#455A64" d="m68.839 185.476.295-1.118-1.118-.305.61-.345 1.107.305-.294 1.107-.6.356Zm64.586-14.163a.24.24 0 0 1-.12-.032.265.265 0 0 1-.115-.181.24.24 0 0 1 .123-.245l2.541-1.463v-23.266l-2.196 1.26a.24.24 0 0 1-.179.028.233.233 0 0 1-.146-.109.245.245 0 0 1 .081-.336l2.561-1.473a.257.257 0 0 1 .244 0 .24.24 0 0 1 .084.092c.02.037.03.079.028.121v23.816a.227.227 0 0 1-.029.116.224.224 0 0 1-.083.087l-2.672 1.585a.252.252 0 0 1-.122 0Z"/><path fill="#455A64" d="m133.851 169.87-.294 1.118 1.118.294-.61.356-1.118-.305.305-1.118.599-.345Z"/><path fill="#4CAF4F" d="M84.317 99.695c0 2.733-3.262 6.827-7.287 9.144-4.024 2.316-7.297 2.032-7.297-.742s3.263-6.828 7.297-9.144c4.035-2.317 7.287-1.992 7.287.742Zm19.244 93.228c3.758-3.144 5.638-7.085 4.201-8.802-1.437-1.716-5.649-.559-9.406 2.585-3.758 3.144-5.638 7.085-4.201 8.801 1.437 1.717 5.649.56 9.406-2.584Zm-19.894-65.715-13.283 7.661c-.397.223-.712 0-.712-.549v-6.838a1.717 1.717 0 0 1 .712-1.371l13.283-7.631c.396-.223.711 0 .711.549v6.828a1.725 1.725 0 0 1-.711 1.351Z"/><path fill="#fff" d="m83.667 127.208-13.283 7.661c-.397.223-.712 0-.712-.549v-6.838a1.717 1.717 0 0 1 .712-1.371l13.283-7.631c.396-.223.711 0 .711.549v6.828a1.725 1.725 0 0 1-.711 1.351Z" opacity=".6"/><path fill="#4CAF4F" d="m107.56 113.4-13.212 7.651c-.396.234-.722 0-.722-.539v-6.837a1.716 1.716 0 0 1 .722-1.372l13.212-7.661c.396-.233.721 0 .721.539v6.838a1.71 1.71 0 0 1-.721 1.381Z"/><path fill="#fff" d="m107.56 113.4-13.212 7.651c-.396.234-.722 0-.722-.539v-6.837a1.716 1.716 0 0 1 .722-1.372l13.212-7.661c.396-.233.721 0 .721.539v6.838a1.71 1.71 0 0 1-.721 1.381Z" opacity=".6"/><path fill="#4CAF4F" d="m107.56 140.223-13.212 7.661c-.396.233-.722 0-.722-.539v-6.838a1.726 1.726 0 0 1 .722-1.371l13.212-7.661c.396-.234.721 0 .721.539v6.837a1.72 1.72 0 0 1-.721 1.372Z"/><path fill="#fff" d="m107.56 140.223-13.212 7.661c-.396.233-.722 0-.722-.539v-6.838a1.726 1.726 0 0 1 .722-1.371l13.212-7.661c.396-.234.721 0 .721.539v6.837a1.72 1.72 0 0 1-.721 1.372Z" opacity=".6"/><path fill="#4CAF4F" d="m107.56 166.537-13.212 7.661c-.396.224-.722 0-.722-.548v-6.838a1.726 1.726 0 0 1 .722-1.372l13.212-7.66c.396-.224.721 0 .721.548v6.828a1.725 1.725 0 0 1-.721 1.381Z"/><path fill="#fff" d="m107.56 166.537-13.212 7.661c-.396.224-.722 0-.722-.548v-6.838a1.726 1.726 0 0 1 .722-1.372l13.212-7.66c.396-.224.721 0 .721.548v6.828a1.725 1.725 0 0 1-.721 1.381Z" opacity=".6"/><path fill="#4CAF4F" d="m130.935 153.075-13.273 7.661c-.396.234-.722 0-.722-.538v-6.838a1.728 1.728 0 0 1 .722-1.372l13.273-7.66c.396-.234.721 0 .721.538v6.838a1.72 1.72 0 0 1-.721 1.371Z"/><path fill="#fff" d="m130.935 153.075-13.273 7.661c-.396.234-.722 0-.722-.538v-6.838a1.728 1.728 0 0 1 .722-1.372l13.273-7.66c.396-.234.721 0 .721.538v6.838a1.72 1.72 0 0 1-.721 1.371Z" opacity=".6"/><path fill="#4CAF4F" d="m130.935 176.891-13.304 7.63c-.396.233-.721 0-.721-.539v-6.837a1.714 1.714 0 0 1 .721-1.372l13.304-7.63c.396-.234.721 0 .721.538v6.838a1.727 1.727 0 0 1-.721 1.372Z"/><path fill="#fff" d="m130.935 176.891-13.304 7.63c-.396.233-.721 0-.721-.539v-6.837a1.714 1.714 0 0 1 .721-1.372l13.304-7.63c.396-.234.721 0 .721.538v6.838a1.727 1.727 0 0 1-.721 1.372Z" opacity=".6"/><path fill="#4CAF4F" d="m83.667 154.041-13.283 7.66c-.397.234-.712 0-.712-.548v-6.828a1.738 1.738 0 0 1 .712-1.382l13.283-7.66c.396-.224.711 0 .711.548v6.838a1.716 1.716 0 0 1-.711 1.372Z"/><path fill="#fff" d="m83.667 154.041-13.283 7.66c-.397.234-.712 0-.712-.548v-6.828a1.738 1.738 0 0 1 .712-1.382l13.283-7.66c.396-.224.711 0 .711.548v6.838a1.716 1.716 0 0 1-.711 1.372Z" opacity=".6"/><path fill="#455A64" d="m123.597 106.563-5.61-7.834a2.151 2.151 0 0 1 .671-2.51l11.179-6.471c.711-.417 1.108.61.671 1.727l-5.61 14.316c-.295.873-.955 1.249-1.301.772Z"/><path fill="#C8E6C9" d="m129.979 123.977-5.203 8.971c-.305.519-.712.762-1.016.59l-5.204-2.967c-.457-.264-.457-1.311 0-2.103l5.204-8.961c.304-.519.711-.762 1.016-.59l5.203 2.967c.458.254.458 1.311 0 2.093Zm-47.247 53.574-5.194 9.002c-.304.518-.721.762-1.016.589l-5.203-2.967c-.458-.254-.458-1.31 0-2.103l5.203-8.961c.295-.518.712-.762 1.016-.589l5.194 2.966c.437.224.437 1.281 0 2.063Z"/><path fill="#455A64" d="M57.345 145.913a.266.266 0 0 1-.214-.112.255.255 0 0 1 .092-.335l15.671-9.043a.24.24 0 0 1 .184-.029.25.25 0 0 1 .151.11.255.255 0 0 1-.091.336l-15.671 9.073a.279.279 0 0 1-.122 0Z"/><path fill="#E0E0E0" d="M57.345 148.229a.262.262 0 0 1-.123-.033.26.26 0 0 1-.09-.089.244.244 0 0 1 .09-.325l15.672-9.053a.255.255 0 0 1 .335.092.244.244 0 0 1-.091.325l-15.671 9.053a.286.286 0 0 1-.122.03Zm0 2.276a.273.273 0 0 1-.214-.122.254.254 0 0 1 .092-.335l15.671-9.043a.245.245 0 0 1 .273.019.236.236 0 0 1 .082.254.246.246 0 0 1-.111.144l-15.671 9.052-.122.031Zm0 2.266a.266.266 0 0 1-.214-.112.255.255 0 0 1 .092-.335l15.671-9.043a.24.24 0 0 1 .184-.029.25.25 0 0 1 .151.11.255.255 0 0 1-.091.336l-15.671 9.042a.273.273 0 0 1-.122.031Z"/><path fill="#455A64" d="M50.454 119.364a.226.226 0 0 1-.12-.031.224.224 0 0 1-.083-.091.238.238 0 0 1-.029-.184.248.248 0 0 1 .11-.151l15.682-9.042a.248.248 0 0 1 .163.005.247.247 0 0 1 .15.269.245.245 0 0 1-.08.142l-15.671 9.053a.272.272 0 0 1-.122.03Z"/><path fill="#E0E0E0" d="M50.454 121.63a.226.226 0 0 1-.116-.029.238.238 0 0 1-.116-.267.248.248 0 0 1 .11-.151l15.682-9.042a.228.228 0 0 1 .18-.028c.03.007.058.021.083.039a.239.239 0 0 1 .093.161.246.246 0 0 1-.05.182.252.252 0 0 1-.073.062L50.576 121.6a.286.286 0 0 1-.122.03Zm0 2.276a.222.222 0 0 1-.203-.122.235.235 0 0 1 .081-.325l15.682-9.043a.247.247 0 0 1 .325.092.231.231 0 0 1-.02.265.232.232 0 0 1-.072.06l-15.67 9.053a.282.282 0 0 1-.123.02Zm0 2.276a.242.242 0 0 1-.15-.05.242.242 0 0 1 .028-.407l15.682-9.043a.245.245 0 0 1 .182-.024.238.238 0 0 1 .143.116.233.233 0 0 1-.092.325l-15.67 9.052-.123.031Z"/><path fill="#455A64" d="M93.118 125.034a.243.243 0 0 1-.15-.05.241.241 0 0 1-.078-.29.247.247 0 0 1 .106-.118l15.682-9.042a.23.23 0 0 1 .088-.03.23.23 0 0 1 .237.121.24.24 0 0 1 .024.183.244.244 0 0 1-.043.083.25.25 0 0 1-.073.06l-15.67 9.042a.199.199 0 0 1-.123.041Z"/><path fill="#E0E0E0" d="M93.118 127.299a.226.226 0 0 1-.119-.031.225.225 0 0 1-.084-.091.23.23 0 0 1-.028-.179.23.23 0 0 1 .11-.146l15.681-9.052a.243.243 0 0 1 .234.426l-15.672 9.043-.122.03Zm0 2.276a.218.218 0 0 1-.119-.032.216.216 0 0 1-.084-.09.23.23 0 0 1-.028-.179.23.23 0 0 1 .11-.146l15.681-9.052a.242.242 0 0 1 .349.273.235.235 0 0 1-.115.143l-15.672 9.053a.272.272 0 0 1-.122.03Zm0 2.276a.242.242 0 0 1-.24-.181.243.243 0 0 1 .118-.276l15.682-9.043a.24.24 0 0 1 .18-.028c.03.008.058.022.083.04a.244.244 0 0 1 .093.161.24.24 0 0 1-.05.181.233.233 0 0 1-.073.063l-15.67 9.042a.187.187 0 0 1-.123.041Z"/><path fill="#455A64" d="M115.792 86.171a.223.223 0 0 1-.203-.121.22.22 0 0 1 .091-.325l15.671-9.053a.244.244 0 0 1 .326.091.241.241 0 0 1 .028.18.239.239 0 0 1-.11.145l-15.681 9.053a.244.244 0 0 1-.122.03Z"/><path fill="#E0E0E0" d="M115.792 88.447a.245.245 0 0 1-.203-.122.243.243 0 0 1 .101-.325l15.672-9.042a.22.22 0 0 1 .183-.029.227.227 0 0 1 .142.12.242.242 0 0 1 .028.18.237.237 0 0 1-.11.145l-15.681 9.043a.172.172 0 0 1-.132.03Zm0 2.266a.222.222 0 0 1-.203-.122.234.234 0 0 1 .019-.265.233.233 0 0 1 .072-.06l15.671-9.043a.235.235 0 0 1 .326.081.257.257 0 0 1 .028.185.238.238 0 0 1-.11.15l-15.681 9.044a.241.241 0 0 1-.122.03Zm0 2.276a.224.224 0 0 1-.203-.122.22.22 0 0 1 .091-.325l15.671-9.053a.245.245 0 0 1 .326.092.244.244 0 0 1 .028.18.239.239 0 0 1-.11.145l-15.681 9.052a.246.246 0 0 1-.122.03Z"/><path fill="#455A64" d="M130.315 111.612a.215.215 0 0 1-.119-.032.217.217 0 0 1-.085-.09.218.218 0 0 1-.028-.183.226.226 0 0 1 .12-.142l15.671-9.052a.245.245 0 0 1 .359.278.24.24 0 0 1-.115.148l-15.681 9.043a.25.25 0 0 1-.122.03Z"/><path fill="#E0E0E0" d="M130.315 113.888a.23.23 0 0 1-.204-.122.24.24 0 0 1 .019-.273.256.256 0 0 1 .073-.062l15.671-9.043a.235.235 0 0 1 .089-.034.228.228 0 0 1 .236.126.225.225 0 0 1 .028.18.234.234 0 0 1-.109.145l-15.681 9.053a.25.25 0 0 1-.122.03Zm0 2.266a.239.239 0 0 1-.204-.112.24.24 0 0 1-.024-.187.24.24 0 0 1 .116-.148l15.671-9.043a.242.242 0 0 1 .18-.028.227.227 0 0 1 .145.11.234.234 0 0 1 .029.184.255.255 0 0 1-.11.151l-15.681 9.042a.252.252 0 0 1-.122.031Zm0 2.326a.223.223 0 0 1-.204-.121.235.235 0 0 1-.034-.089.228.228 0 0 1 .126-.237l15.671-9.052a.243.243 0 0 1 .325.091.23.23 0 0 1-.081.325l-15.681 9.053a.24.24 0 0 1-.122.03Z"/><path fill="#455A64" d="M130.315 134.208a.215.215 0 0 1-.119-.032.217.217 0 0 1-.085-.09.218.218 0 0 1-.028-.183.226.226 0 0 1 .12-.142l15.671-9.052a.243.243 0 0 1 .325.091.23.23 0 0 1-.081.325l-15.681 9.053a.25.25 0 0 1-.122.03Z"/><path fill="#E0E0E0" d="M130.315 136.484a.247.247 0 0 1-.235-.213.24.24 0 0 1 .05-.182.256.256 0 0 1 .073-.062l15.671-9.043a.235.235 0 0 1 .089-.034.218.218 0 0 1 .095.006.242.242 0 0 1 .084.044.224.224 0 0 1 .057.076.225.225 0 0 1 .028.18.234.234 0 0 1-.109.145l-15.681 9.053a.25.25 0 0 1-.122.03Zm0 2.317a.236.236 0 0 1-.119-.032.237.237 0 0 1-.085-.09.24.24 0 0 1-.023-.182.233.233 0 0 1 .115-.144l15.671-9.042a.247.247 0 0 1 .087-.032.241.241 0 0 1 .177.044.223.223 0 0 1 .061.069.245.245 0 0 1-.081.336l-15.681 9.042a.252.252 0 0 1-.122.031Zm0 2.225a.23.23 0 0 1-.204-.122.235.235 0 0 1-.034-.089.228.228 0 0 1 .126-.236l15.671-9.053a.243.243 0 0 1 .325.091.237.237 0 0 1 .033.087.242.242 0 0 1-.044.177.244.244 0 0 1-.07.062l-15.681 9.052a.252.252 0 0 1-.122.031Z"/><path fill="#455A64" d="M56.572 197.251a.254.254 0 0 1-.213-.111.244.244 0 0 1 .091-.336l15.671-9.042a.24.24 0 0 1 .271.011.25.25 0 0 1 .065.07.255.255 0 0 1-.092.335l-15.62 9.043a.273.273 0 0 1-.173.03Z"/><path fill="#E0E0E0" d="M56.572 199.527a.242.242 0 0 1-.237-.304.232.232 0 0 1 .115-.143l15.671-9.052a.254.254 0 0 1 .335.091.244.244 0 0 1-.09.325l-15.621 9.053-.173.03Zm0 2.266a.262.262 0 0 1-.213-.122.244.244 0 0 1 .091-.335l15.671-9.043a.245.245 0 0 1 .273.019.236.236 0 0 1 .083.254.245.245 0 0 1-.112.144l-15.62 9.083a.283.283 0 0 1-.173 0Zm0 2.276a.248.248 0 0 1-.14-.054.241.241 0 0 1-.076-.276.241.241 0 0 1 .094-.117l15.672-9.043a.258.258 0 0 1 .089-.033.254.254 0 0 1 .095.004.248.248 0 0 1 .15.11.255.255 0 0 1-.09.336l-15.621 9.042-.173.031Z"/><path fill="#455A64" d="M238.967 28.056v123.841a6.568 6.568 0 0 1-.87 2.933 6.56 6.56 0 0 1-2.108 2.218l-79.169 45.72a1.913 1.913 0 0 1-1.017.285 1.688 1.688 0 0 1-.376 0 1.103 1.103 0 0 1-.254-.092l-.162-.081-.173-.122a1.16 1.16 0 0 1-.163-.142 2.405 2.405 0 0 1-.548-.783 3.74 3.74 0 0 1-.315-1.503V77.099a6.595 6.595 0 0 1 2.977-5.152l79.17-45.628a2.16 2.16 0 0 1 2.032-.254c.089.043.174.094.254.152a2.104 2.104 0 0 1 .722 1.839Z"/><path fill="#455A64" d="M237.311 26.938a.539.539 0 0 1 .274.061h.051s.315.265.315 1.016v123.882a5.518 5.518 0 0 1-2.47 4.267l-79.159 45.72c-.144.09-.308.143-.478.153h-.223l-.082-.061h-.061l-.051-.051a1.566 1.566 0 0 1-.304-.447 2.71 2.71 0 0 1-.224-1.087V77.099a5.641 5.641 0 0 1 2.47-4.268l79.169-45.628a1.65 1.65 0 0 1 .813-.265h-.04Zm.04-1.016a2.676 2.676 0 0 0-1.321.397l-79.17 45.628a6.595 6.595 0 0 0-2.977 5.151v123.14c0 .518.107 1.03.315 1.504.129.295.315.561.549.782.049.053.103.101.162.143l.173.121.163.082c.08.041.165.071.254.091.125.015.251.015.376 0 .334-.013.659-.111.945-.284l79.169-45.721a6.551 6.551 0 0 0 2.978-5.151V28.056a2.107 2.107 0 0 0-.722-1.798 1.492 1.492 0 0 0-.934-.295l.04-.04Z"/><path fill="#455A64" d="M238.967 28.056v123.841a6.568 6.568 0 0 1-.87 2.933 6.56 6.56 0 0 1-2.108 2.218l-79.169 45.72a1.913 1.913 0 0 1-1.017.285 1.688 1.688 0 0 1-.376 0 1.103 1.103 0 0 1-.254-.092l-.162-.081-.173-.122a1.16 1.16 0 0 1-.163-.142 2.405 2.405 0 0 1-.548-.783 3.74 3.74 0 0 1-.315-1.503V77.099a6.595 6.595 0 0 1 2.977-5.152l79.17-45.628a2.16 2.16 0 0 1 2.032-.254c.089.043.174.094.254.152a2.104 2.104 0 0 1 .722 1.839Z" opacity=".8"/><path fill="#4CAF4F" d="M237.991 26.024a2.164 2.164 0 0 0-2.032.254l-79.17 45.629a6.601 6.601 0 0 0-2.977 5.15v9.724l-3.791-2.225v-9.652a6.535 6.535 0 0 1 2.967-5.141l79.18-45.629a2.034 2.034 0 0 1 2.155-.172c.569.355 3.038 1.777 3.668 2.062Z"/><path fill="#4CAF4F" d="M238.967 28.056c0-1.88-1.342-2.632-2.978-1.687L156.82 72a6.574 6.574 0 0 0-2.968 5.14v9.723l85.115-49.083v-9.723Z"/><path fill="#fff" d="M235.989 26.319 156.82 71.947a6.198 6.198 0 0 0-2.094 2.215l-3.77-2.194a5.883 5.883 0 0 1 2.032-2.164l79.17-45.63a2.102 2.102 0 0 1 2.165-.182c.528.335 2.998 1.737 3.628 2.032a2.147 2.147 0 0 0-1.962.295Z" opacity=".4"/><path fill="#103E13" d="M150.041 84.607v-9.662a6.091 6.091 0 0 1 .915-2.977l3.78 2.184a6.04 6.04 0 0 0-.884 2.957v9.713l-3.811-2.215Z" opacity=".15"/><path fill="#455A64" d="M221.05 39.09a4.422 4.422 0 0 0-1.677 3.556c0 1.422.752 2.154 1.677 1.615a4.444 4.444 0 0 0 1.677-3.556c0-1.473-.752-2.154-1.677-1.615Zm6.047-3.505a4.446 4.446 0 0 0-1.677 3.556c0 1.432.752 2.154 1.677 1.625a4.435 4.435 0 0 0 1.687-3.556c0-1.432-.752-2.154-1.687-1.625Zm6.047-3.465a4.446 4.446 0 0 0-1.677 3.556c0 1.433.752 2.154 1.677 1.615a4.401 4.401 0 0 0 1.687-3.555c0-1.453-.752-2.185-1.687-1.616Z"/><path fill="#37474F" d="m154.94 202.738-.376-.214c-.296-.188-.602-.36-.915-.518l-.498-.284-.772-.447-.661-.376-.366-.203a1.51 1.51 0 0 1-.508-.407 2.209 2.209 0 0 1-.407-.609 3.69 3.69 0 0 1-.335-1.565V84.597l3.791 2.225v113.416c.018.516.125 1.024.315 1.504.129.295.315.561.549.782.041.06.097.109.162.143l.021.071Z"/><path fill="#4CAF4F" d="M161.292 90.947a.904.904 0 0 1 .111-.407l1.586-3.292a.244.244 0 0 1 .071-.091.09.09 0 0 1 .102-.02.102.102 0 0 1 .03.02.217.217 0 0 1 .051.152v1.108c.012.115.012.23 0 .345 0 .082-.061.183-.112.295l-.844 1.737.844.773c.046.05.084.109.112.172.014.101.014.204 0 .305v1.036a.614.614 0 0 1-.051.224.398.398 0 0 1-.132.152h-.071l-1.565-1.392a.32.32 0 0 1-.091-.123.324.324 0 0 1-.021-.151l-.02-.843Zm5.813-8.24c.025-.112.062-.221.111-.325a.605.605 0 0 1 .234-.244l.6-.346h.122a.176.176 0 0 1 .051.153.497.497 0 0 1 0 .122l-2.734 11.613a1.468 1.468 0 0 1-.112.315.56.56 0 0 1-.244.264l-.569.335a.103.103 0 0 1-.122 0 .221.221 0 0 1-.048-.075.827.827 0 0 1-.013-.21l2.724-11.602Zm4.207 3.261a.935.935 0 0 1-.112.417l-1.585 3.281-.071.102a.123.123 0 0 1-.132 0 .228.228 0 0 1 0-.162v-1.108a1.446 1.446 0 0 1 0-.335 1.68 1.68 0 0 1 .122-.305l.833-1.737-.833-.762a.587.587 0 0 1-.122-.173 1.038 1.038 0 0 1 0-.305v-1.107a.645.645 0 0 1 0-.224.39.39 0 0 1 .132-.152.06.06 0 0 1 .071 0l1.585 1.453c.04.035.071.079.091.128.019.05.026.103.021.156v.833Zm4.411-.752a.132.132 0 0 1 .162 0c.046.058.068.13.061.204v1.209a.651.651 0 0 1-.061.274.519.519 0 0 1-.162.193l-.742.427a.112.112 0 0 1-.152 0 .226.226 0 0 1-.06-.088c-.012-.034-.016-.07-.012-.105v-1.22a.55.55 0 0 1 .072-.274.355.355 0 0 1 .152-.183l.742-.437Zm2.51-1.442a.123.123 0 0 1 .153 0 .29.29 0 0 1 .061.203v1.209a.683.683 0 0 1-.061.274.361.361 0 0 1-.153.183l-.752.437a.122.122 0 0 1-.152 0 .282.282 0 0 1-.061-.203v-1.21c0-.094.021-.188.061-.274a.419.419 0 0 1 .152-.193l.752-.426Zm2.5-1.444a.125.125 0 0 1 .082-.03.12.12 0 0 1 .081.03.256.256 0 0 1 .061.194v1.22a.683.683 0 0 1-.061.273.415.415 0 0 1-.163.183l-.742.437a.122.122 0 0 1-.152 0 .236.236 0 0 1-.059-.093.229.229 0 0 1-.012-.11v-1.209a.549.549 0 0 1 .071-.274.432.432 0 0 1 .152-.193l.742-.427Zm-18.771 17.476 51.293-29.586c.427-.244.782-.07.782.396a1.674 1.674 0 0 1-.782 1.3l-51.262 29.587c-.437.254-.783.081-.783-.396a1.683 1.683 0 0 1 .752-1.3Z"/><path fill="#C8E6C9" d="m173.741 113.4 51.262-29.586c.427-.243.783-.07.783.397a1.708 1.708 0 0 1-.783 1.31l-51.262 29.586c-.437.244-.782.071-.782-.396a1.673 1.673 0 0 1 .782-1.311Zm0 6.808 32.115-18.532c.437-.254.783-.082.783.396a1.678 1.678 0 0 1-.783 1.3l-32.115 18.532c-.437.244-.782.071-.782-.396a1.653 1.653 0 0 1 .782-1.3Zm0 6.797 32.115-18.532c.437-.254.783-.071.783.396a1.678 1.678 0 0 1-.783 1.3l-32.115 18.532c-.437.254-.782.072-.782-.396a1.653 1.653 0 0 1 .782-1.3Z"/><path fill="#4CAF4F" d="m216.304 68.463 14.624-8.474c.437-.244.783-.071.783.396a1.686 1.686 0 0 1-.783 1.31l-14.624 8.474c-.437.244-.783.072-.783-.396a1.675 1.675 0 0 1 .783-1.31Zm-41.669 98.897 38.62-22.352c.427-.254.782-.071.782.397a1.707 1.707 0 0 1-.782 1.3l-38.62 22.352c-.437.244-.782.071-.782-.396a1.69 1.69 0 0 1 .782-1.301Zm41.669-24.12 14.584-8.504c.437-.254.782-.071.782.397a1.653 1.653 0 0 1-.782 1.3l-14.584 8.464c-.437.254-.783.071-.783-.397a1.686 1.686 0 0 1 .783-1.26Zm-35.113-.182 49.697-28.652c.437-.244.782-.071.782.396a1.673 1.673 0 0 1-.782 1.311l-49.697 28.651c-.427.244-.783.072-.783-.406a1.704 1.704 0 0 1 .783-1.3Zm-12.47 14.234 62.167-36.089c.437-.244.782-.071.782.397a1.673 1.673 0 0 1-.782 1.31l-62.167 36.078c-.427.254-.783.072-.783-.396a1.688 1.688 0 0 1 .783-1.3Z"/><path fill="#E8F5E9" d="m171.648 162.28 41.607-24.079c.427-.244.782-.071.782.396a1.694 1.694 0 0 1-.782 1.311l-41.577 24.079c-.437.244-.782.071-.782-.396a1.673 1.673 0 0 1 .752-1.311Z"/><path fill="#4CAF4F" d="m168.721 150.241 8.222-4.745c.426-.254.782-.071.782.396a1.684 1.684 0 0 1-.782 1.301l-8.222 4.744c-.427.254-.783.072-.783-.396a1.647 1.647 0 0 1 .783-1.3Zm-6.759-43.617 35.957-20.767c.437-.254.793-.072.793.396a1.675 1.675 0 0 1-.793 1.3l-35.957 20.767c-.437.254-.782.071-.782-.396a1.653 1.653 0 0 1 .782-1.3Z"/><path fill="#fff" d="m161.962 106.624 35.957-20.767c.437-.254.793-.072.793.396a1.675 1.675 0 0 1-.793 1.3l-35.957 20.767c-.437.254-.782.071-.782-.396a1.653 1.653 0 0 1 .782-1.3Z" opacity=".6"/><path fill="#4CAF4F" d="m161.962 113.4 7.267-4.196c.427-.254.782-.081.782.397a1.715 1.715 0 0 1-.238.742 1.716 1.716 0 0 1-.544.558l-7.267 4.196c-.437.254-.782.071-.782-.396a1.65 1.65 0 0 1 .782-1.301Z"/><path fill="#fff" d="m161.962 113.4 7.267-4.196c.427-.254.782-.081.782.397a1.715 1.715 0 0 1-.238.742 1.716 1.716 0 0 1-.544.558l-7.267 4.196c-.437.254-.782.071-.782-.396a1.65 1.65 0 0 1 .782-1.301Z" opacity=".6"/><path fill="#4CAF4F" d="m161.962 120.208 7.267-4.196c.427-.254.782-.072.782.396a1.715 1.715 0 0 1-.238.742 1.716 1.716 0 0 1-.544.558l-7.267 4.196c-.437.254-.782.071-.782-.396a1.653 1.653 0 0 1 .782-1.3Z"/><path fill="#fff" d="m161.962 120.208 7.267-4.196c.427-.254.782-.072.782.396a1.715 1.715 0 0 1-.238.742 1.716 1.716 0 0 1-.544.558l-7.267 4.196c-.437.254-.782.071-.782-.396a1.653 1.653 0 0 1 .782-1.3Z" opacity=".6"/><path fill="#4CAF4F" d="m161.962 127.005 7.267-4.196c.427-.254.782-.072.782.396a1.706 1.706 0 0 1-.782 1.3l-7.267 4.196c-.437.254-.782.072-.782-.396a1.677 1.677 0 0 1 .782-1.3Z"/><path fill="#fff" d="m161.962 127.005 7.267-4.196c.427-.254.782-.072.782.396a1.706 1.706 0 0 1-.782 1.3l-7.267 4.196c-.437.254-.782.072-.782-.396a1.677 1.677 0 0 1 .782-1.3Z" opacity=".6"/><path fill="#4CAF4F" d="m161.962 133.802 7.267-4.196c.427-.254.782-.071.782.396a1.706 1.706 0 0 1-.782 1.3l-7.267 4.197c-.437.254-.782.071-.782-.397a1.677 1.677 0 0 1 .782-1.3Z"/><path fill="#fff" d="m161.962 133.802 7.267-4.196c.427-.254.782-.071.782.396a1.706 1.706 0 0 1-.782 1.3l-7.267 4.197c-.437.254-.782.071-.782-.397a1.677 1.677 0 0 1 .782-1.3Z" opacity=".6"/><path fill="#C8E6C9" d="m173.741 174.828 32.115-18.532c.437-.254.783-.071.783.396a1.678 1.678 0 0 1-.783 1.301l-32.115 18.532c-.437.254-.782.071-.782-.396a1.657 1.657 0 0 1 .782-1.301Zm0 6.797 32.115-18.532c.437-.254.783-.071.783.396a1.656 1.656 0 0 1-.783 1.301l-32.115 18.532c-.437.254-.782.071-.782-.396a1.677 1.677 0 0 1 .782-1.301Zm36.79-28.031 20.184-11.613c.437-.244.782-.072.782.396a1.665 1.665 0 0 1-.782 1.31l-20.184 11.603c-.427.254-.782.071-.782-.396a1.674 1.674 0 0 1 .782-1.3Zm0 6.797 20.184-11.613c.437-.244.782-.071.782.406a1.677 1.677 0 0 1-.782 1.301l-20.184 11.602c-.427.254-.782.071-.782-.396a1.706 1.706 0 0 1 .782-1.3Z"/><path fill="#4CAF4F" d="m161.962 181.625 7.267-4.196c.427-.254.782-.071.782.396a1.693 1.693 0 0 1-.782 1.301l-7.267 4.196c-.437.254-.782.081-.782-.396a1.677 1.677 0 0 1 .782-1.301Z"/><path fill="#fff" d="m161.962 181.625 7.267-4.196c.427-.254.782-.071.782.396a1.693 1.693 0 0 1-.782 1.301l-7.267 4.196c-.437.254-.782.081-.782-.396a1.677 1.677 0 0 1 .782-1.301Z" opacity=".6"/><path fill="#4CAF4F" d="m161.962 188.422 7.267-4.196c.427-.244.782-.071.782.396a1.678 1.678 0 0 1-.782 1.301l-7.267 4.206c-.437.244-.782.071-.782-.396a1.673 1.673 0 0 1 .782-1.311Z"/><path fill="#fff" d="m161.962 188.422 7.267-4.196c.427-.244.782-.071.782.396a1.678 1.678 0 0 1-.782 1.301l-7.267 4.206c-.437.244-.782.071-.782-.396a1.673 1.673 0 0 1 .782-1.311Z" opacity=".6"/><path fill="#4CAF4F" d="m200.968 84.099 9.309-5.355c.427-.254.783-.07.783.397a1.689 1.689 0 0 1-.783 1.3l-9.309 5.355c-.437.253-.793.08-.793-.397a1.684 1.684 0 0 1 .793-1.3Z"/><path fill="#fff" d="m200.968 84.099 9.309-5.355c.427-.254.783-.07.783.397a1.689 1.689 0 0 1-.783 1.3l-9.309 5.355c-.437.253-.793.08-.793-.397a1.684 1.684 0 0 1 .793-1.3Z" opacity=".6"/><path fill="#E8F5E9" d="m173.182 134.066 45.358-26.142c.426-.254.782-.071.782.396a1.692 1.692 0 0 1-.782 1.301l-45.358 26.131c-.427.254-.782.072-.782-.396a1.679 1.679 0 0 1 .782-1.29Zm-11.22 13.442 68.926-39.889c.437-.254.782-.071.782.397a1.657 1.657 0 0 1-.782 1.3l-68.926 39.888c-.437.254-.782.072-.782-.396a1.653 1.653 0 0 1 .782-1.3Zm59.616-41.342 9.309-5.354c.437-.254.783-.071.783.396a1.65 1.65 0 0 1-.783 1.301l-9.309 5.364c-.437.244-.782.071-.782-.406a1.677 1.677 0 0 1 .782-1.301Z"/><path fill="#4CAF4F" d="m173.741 106.613 35.957-20.767c.437-.254.792-.07.792.397a1.688 1.688 0 0 1-.792 1.3l-35.957 20.777c-.437.254-.793.071-.793-.396a1.67 1.67 0 0 1 .793-1.311Z"/><path fill="#fff" d="m173.741 106.613 35.957-20.767c.437-.254.792-.07.792.397a1.688 1.688 0 0 1-.792 1.3l-35.957 20.777c-.437.254-.793.071-.793-.396a1.67 1.67 0 0 1 .793-1.311Z" opacity=".6"/><path fill="#4CAF4F" d="m212.747 84.089 9.309-5.355c.427-.254.782-.081.782.397a1.712 1.712 0 0 1-.782 1.3l-9.309 5.354c-.437.254-.793.072-.793-.396a1.685 1.685 0 0 1 .793-1.3Z"/><path fill="#fff" d="m212.747 84.089 9.309-5.355c.427-.254.782-.081.782.397a1.712 1.712 0 0 1-.782 1.3l-9.309 5.354c-.437.254-.793.072-.793-.396a1.685 1.685 0 0 1 .793-1.3Z" opacity=".6"/><path fill="#103E13" d="m49.682 227.67-29.107 16.795a2.58 2.58 0 0 0-1.169 2.032v35.083c0 .741.529 1.016 1.169.67l29.107-16.764a2.595 2.595 0 0 0 1.168-2.032v-35.113c0-.742-.528-1.036-1.168-.671Zm-8.252-69.657-21.485 12.375a1.18 1.18 0 0 0-.539.925v11.989c0 .345.244.477.539.304l21.484-12.375a1.157 1.157 0 0 0 .539-.914v-11.999c0-.335-.244-.478-.539-.305Zm0 24.923-21.485 12.375a1.176 1.176 0 0 0-.539.924v11.989c0 .335.244.478.539.305l21.484-12.375a1.166 1.166 0 0 0 .539-.925v-11.988c0-.336-.244-.478-.539-.305Zm0 24.953-21.485 12.344a1.175 1.175 0 0 0-.539.925v11.989c0 .335.244.477.539.305l21.484-12.355a1.18 1.18 0 0 0 .539-.925v-11.988c0-.366-.244-.498-.539-.295Z" opacity=".1"/><path fill="#4CAF4F" d="m53.29 229.073-29.067 16.764a2.576 2.576 0 0 0-1.168 2.032v35.082a2.552 2.552 0 0 0 1.168 2.032l2.216 1.25a2.592 2.592 0 0 0 2.337 0l29.107-16.764a2.588 2.588 0 0 0 1.169-2.032v-35.164a2.553 2.553 0 0 0-1.179-2.032l-2.205-1.25a2.598 2.598 0 0 0-2.379.082Z"/><path fill="#103E13" d="M28.736 286.172a2.66 2.66 0 0 1-2.338 0l-2.175-1.25a2.515 2.515 0 0 1-1.168-2.032v-35.042c.02-.422.15-.831.376-1.188l4.522 2.621a2.346 2.346 0 0 0-.345 1.148v35.072c-.04.681.437 1.067 1.128.671Z" opacity=".2"/><path fill="#fff" d="M58.99 232.11c-.09-.589-.568-.802-1.148-.467l-29.106 16.774a2.328 2.328 0 0 0-.823.864l-4.533-2.621c.194-.338.47-.621.803-.823l29.106-16.764a2.58 2.58 0 0 1 2.338 0l2.205 1.249a2.591 2.591 0 0 1 1.159 1.788Z" opacity=".5"/><path fill="#4CAF4F" d="m57.843 231.643-29.107 16.774a2.575 2.575 0 0 0-1.169 2.032v35.073c0 .741.529 1.016 1.169.67l29.107-16.764A2.571 2.571 0 0 0 59 267.396v-35.123c0-.701-.518-1.016-1.158-.63Z"/><path fill="#fff" d="M29.498 266.573a1.878 1.878 0 0 1 .122-.721 5.35 5.35 0 0 1 .376-.681l6.86-11.095a.964.964 0 0 1 .112-.132l.081-.061a.197.197 0 0 1 .254 0 .455.455 0 0 1 .102.336v4.287c.01.31-.056.617-.193.894-.107.2-.226.394-.356.579l-3.049 4.613 3.05 1.179c.124.038.244.093.355.162.132.081.193.305.193.661v4.287c.002.158-.033.315-.102.457a.7.7 0 0 1-.254.305h-.081a.193.193 0 0 1-.112 0l-6.86-3.17a1.013 1.013 0 0 1-.376-.254.944.944 0 0 1-.122-.569v-1.077Zm14.97-18.816c.06-.239.144-.471.254-.691a1.22 1.22 0 0 1 .498-.538l2.297-1.331a.21.21 0 0 1 .137-.05.21.21 0 0 1 .137.05.467.467 0 0 1 .112.345c.008.084.008.169 0 .254l-5.803 24.73a2.714 2.714 0 0 1-.244.67 1.228 1.228 0 0 1-.508.559l-2.256 1.3a.2.2 0 0 1-.264 0 .467.467 0 0 1-.112-.345.865.865 0 0 1 0-.254l5.752-24.699Zm12.612 4.003c.006.246-.036.491-.121.721a6.165 6.165 0 0 1-.377.671l-6.87 11.095a.607.607 0 0 1-.101.132l-.082.061c-.101.061-.193.061-.254 0a.454.454 0 0 1-.101-.336v-4.277a1.78 1.78 0 0 1 .193-.884c.132-.234.244-.427.345-.579l3.05-4.633-3.05-1.148a1.292 1.292 0 0 1-.345-.183c-.132-.091-.193-.315-.193-.66v-4.288a1.014 1.014 0 0 1 .101-.457.64.64 0 0 1 .254-.305h.183l6.87 3.17c.143.055.272.142.377.254.095.174.137.371.121.569v1.077Z"/><path fill="#4CAF4F" d="M45.068 159.364 23.583 171.75a1.152 1.152 0 0 0-.538.914v11.999a1.157 1.157 0 0 0 .538.914l2.124 1.209a1.19 1.19 0 0 0 1.017 0l21.545-12.425a1.195 1.195 0 0 0 .529-.925v-11.989a1.157 1.157 0 0 0-.54-.914l-2.113-1.209a1.251 1.251 0 0 0-1.077.04Z"/><path fill="#103E13" d="M45.068 159.364 23.583 171.75a1.152 1.152 0 0 0-.538.914v11.999a1.157 1.157 0 0 0 .538.914l2.124 1.209a1.19 1.19 0 0 0 1.017 0l21.545-12.425a1.195 1.195 0 0 0 .529-.925v-11.989a1.157 1.157 0 0 0-.54-.914l-2.113-1.209a1.251 1.251 0 0 0-1.077.04Z" opacity=".4"/><path fill="#4CAF4F" d="M48.787 161.386c0-.264-.254-.355-.529-.203l-21.484 12.375a1.087 1.087 0 0 0-.376.396l-3.192-1.829c.086-.158.212-.292.366-.386l21.485-12.375a1.226 1.226 0 0 1 1.077 0l2.114 1.209a1.131 1.131 0 0 1 .539.813Z"/><path fill="#4CAF4F" d="m48.269 161.153-21.495 12.405a1.162 1.162 0 0 0-.528.925v11.988c0 .336.234.478.528.305l21.495-12.415a1.174 1.174 0 0 0 .529-.925v-11.989c0-.294-.184-.437-.529-.294Z"/><path fill="#103E13" d="m48.269 161.153-21.495 12.405a1.162 1.162 0 0 0-.528.925v11.988c0 .336.234.478.528.305l21.495-12.415a1.174 1.174 0 0 0 .529-.925v-11.989c0-.294-.184-.437-.529-.294Z" opacity=".2"/><path fill="#F5F7FA" d="M31.551 176.626v1.778c.009.144.03.287.061.427.021.114.074.22.152.305a.41.41 0 0 0 .265.122.797.797 0 0 0 .386-.132c.149-.073.28-.177.386-.305a1.54 1.54 0 0 0 .244-.345c.063-.113.115-.232.152-.356 0-.122.061-.224.082-.315.01-.098.033-.194.07-.285a.419.419 0 0 1 .164-.162l.894-.518h.101a.17.17 0 0 1 .04.06.174.174 0 0 1 .011.072 4.4 4.4 0 0 1-.172 1.117 5.358 5.358 0 0 1-1.129 2.032 3.36 3.36 0 0 1-.843.691c-.265.17-.57.265-.884.275a1.014 1.014 0 0 1-.66-.234 1.378 1.378 0 0 1-.418-.671 3.572 3.572 0 0 1-.172-1.016v-1.879a6.28 6.28 0 0 1 .162-1.199c.1-.401.243-.789.427-1.158.176-.366.398-.707.66-1.016a3.57 3.57 0 0 1 .885-.742c.255-.157.544-.251.843-.274.235-.018.47.039.671.162.206.136.365.331.457.559.116.291.175.601.173.914a.413.413 0 0 1-.05.193.276.276 0 0 1-.102.133l-.894.518c-.082 0-.133.051-.163 0a.398.398 0 0 1-.071-.193c0-.071 0-.153-.082-.234a.53.53 0 0 0-.152-.183.435.435 0 0 0-.244-.061.878.878 0 0 0-.386.142 1.2 1.2 0 0 0-.386.326 1.615 1.615 0 0 0-.265.416 2.03 2.03 0 0 0-.152.478 4.144 4.144 0 0 0-.061.558Zm5.884-6.279a1.77 1.77 0 0 1 .803-.274c.222-.016.444.029.64.132.176.106.32.257.417.437.102.191.154.404.153.62a.396.396 0 0 1 0 .183.247.247 0 0 1-.102.132l-.894.518a.32.32 0 0 1-.163 0l-.112-.061-.07-.071a.357.357 0 0 0-.123-.081.48.48 0 0 0-.213 0 .604.604 0 0 0-.295.111 2.32 2.32 0 0 0-.254.173 1.38 1.38 0 0 0-.214.203c-.06.079-.111.164-.152.254a.724.724 0 0 0-.05.295c-.01.08.011.16.06.223.03.029.065.05.104.062.038.013.08.016.12.01.137-.006.273-.026.406-.061l.63-.163c.215-.063.438-.091.661-.081a.79.79 0 0 1 .468.173c.137.129.235.295.284.477.069.262.1.532.091.803a3.424 3.424 0 0 1-.162 1.016 4.628 4.628 0 0 1-.437 1.016c-.19.309-.419.593-.681.843-.25.254-.535.472-.843.65-.258.165-.55.269-.854.305a1.08 1.08 0 0 1-1.098-.569 1.693 1.693 0 0 1-.162-.701.496.496 0 0 1 .05-.193.246.246 0 0 1 .092-.122l.904-.518a.269.269 0 0 1 .153-.051.16.16 0 0 1 .101.051l.092.081a.314.314 0 0 0 .142.112.422.422 0 0 0 .234 0 .715.715 0 0 0 .346-.122c.227-.126.433-.287.61-.477a.826.826 0 0 0 .243-.58.232.232 0 0 0-.091-.213.62.62 0 0 0-.264 0 2.636 2.636 0 0 0-.458.091l-.66.173a1.009 1.009 0 0 1-1.017-.183 1.838 1.838 0 0 1-.325-1.26c0-.319.045-.637.132-.944.09-.333.22-.654.386-.955.17-.307.375-.593.61-.854.223-.24.48-.445.762-.61Zm4.929-2.875c.244-.15.519-.24.803-.264a1.14 1.14 0 0 1 .63.132c.184.099.333.251.427.437.098.192.15.404.153.62a.396.396 0 0 1 0 .183.37.37 0 0 1-.102.132l-.904.518a.248.248 0 0 1-.153 0 .219.219 0 0 1-.122-.051l-.06-.071a.356.356 0 0 0-.123-.081.48.48 0 0 0-.213 0 .74.74 0 0 0-.295.122c-.09.048-.176.106-.254.172-.078.06-.15.128-.214.204a.997.997 0 0 0-.152.254.726.726 0 0 0-.06.294.325.325 0 0 0 .07.224.254.254 0 0 0 .214.071c.14-.005.28-.025.416-.061l.63-.163c.21-.068.43-.096.65-.081a.758.758 0 0 1 .479.173c.132.128.227.289.274.467.072.265.106.539.102.813-.006.345-.06.687-.163 1.016a4.4 4.4 0 0 1-1.962 2.479c-.26.159-.55.262-.853.305a1.163 1.163 0 0 1-.66-.122 1.118 1.118 0 0 1-.438-.457 1.475 1.475 0 0 1-.162-.691.437.437 0 0 1 0-.193.317.317 0 0 1 .101-.122l.905-.518c.06 0 .111-.061.142 0a.212.212 0 0 1 .112 0l.081.091a.6.6 0 0 0 .153.112.422.422 0 0 0 .233 0 .888.888 0 0 0 .346-.122c.225-.129.43-.29.61-.478a.822.822 0 0 0 .243-.579.236.236 0 0 0-.09-.213.494.494 0 0 0-.265 0 2.543 2.543 0 0 0-.458.091l-.66.163a1.025 1.025 0 0 1-1.016-.173 1.87 1.87 0 0 1-.336-1.27c.005-.32.053-.638.142-.945.086-.331.216-.649.387-.945.166-.312.371-.602.61-.863.237-.24.507-.446.802-.61Z"/><path fill="#4CAF4F" d="m45.068 184.288-21.485 12.426a1.192 1.192 0 0 0-.538.924v11.989a1.178 1.178 0 0 0 .538.925l2.124 1.198a1.148 1.148 0 0 0 1.017 0l21.494-12.375a1.219 1.219 0 0 0 .529-.924v-11.989a1.18 1.18 0 0 0-.539-.924l-2.114-1.199a1.218 1.218 0 0 0-1.026-.051Z"/><path fill="#103E13" d="m45.068 184.288-21.485 12.426a1.192 1.192 0 0 0-.538.924v11.989a1.178 1.178 0 0 0 .538.925l2.124 1.198a1.148 1.148 0 0 0 1.017 0l21.494-12.375a1.219 1.219 0 0 0 .529-.924v-11.989a1.18 1.18 0 0 0-.539-.924l-2.114-1.199a1.218 1.218 0 0 0-1.026-.051Z" opacity=".4"/><path fill="#4CAF4F" d="M48.787 186.309c0-.264-.254-.366-.529-.213l-21.484 12.385a1.087 1.087 0 0 0-.376.396l-3.192-1.829a1.02 1.02 0 0 1 .366-.386l21.485-12.375a1.187 1.187 0 0 1 1.077 0l2.124 1.25a1.14 1.14 0 0 1 .529.772Z"/><path fill="#4CAF4F" d="m48.269 186.096-21.495 12.385a1.147 1.147 0 0 0-.528.914v11.999c0 .335.234.478.528.305l21.495-12.375a1.182 1.182 0 0 0 .529-.925V186.41c0-.345-.184-.477-.529-.314Z"/><path fill="#103E13" d="m48.269 186.096-21.495 12.385a1.147 1.147 0 0 0-.528.914v11.999c0 .335.234.478.528.305l21.495-12.375a1.182 1.182 0 0 0 .529-.925V186.41c0-.345-.184-.477-.529-.314Z" opacity=".2"/><path fill="#F5F7FA" d="M31.652 198.684a.088.088 0 0 1 .066-.028.088.088 0 0 1 .067.028.204.204 0 0 1 .06.162v6.828a.544.544 0 0 1-.06.234.324.324 0 0 1-.133.152l-.894.518a.088.088 0 0 1-.066.028.089.089 0 0 1-.066-.028v-2.753l-1.524.884v2.58c0 .082-.02.163-.061.234a.36.36 0 0 1-.122.163l-.905.518a.1.1 0 0 1-.066.024.1.1 0 0 1-.066-.024.255.255 0 0 1 0-.173v-6.827a.653.653 0 0 1 0-.234.441.441 0 0 1 .132-.163l.905-.518a.103.103 0 0 1 .122 0 .226.226 0 0 1 .06.173v2.54l1.525-.874v-2.55a.508.508 0 0 1 0-.234.393.393 0 0 1 .132-.152l.895-.508Zm5.021-2.896a.093.093 0 0 1 .03-.021.11.11 0 0 1 .036-.007.11.11 0 0 1 .036.007.093.093 0 0 1 .03.021c.02.053.02.11 0 .163v1.117a.602.602 0 0 1 0 .234.371.371 0 0 1-.132.163l-1.21.701v5.415a.656.656 0 0 1-.06.244.43.43 0 0 1-.132.162l-.905.519a.128.128 0 0 1-.066.019.128.128 0 0 1-.066-.019.264.264 0 0 1 0-.173v-5.415l-1.21.69a.1.1 0 0 1-.132 0 .291.291 0 0 1-.05-.172v-1.118a.604.604 0 0 1 .05-.234.368.368 0 0 1 .133-.162l3.648-2.134Zm3.151 3.709a.49.49 0 0 1-.092-.122l-.65-1.372v3.495a.489.489 0 0 1-.051.234.362.362 0 0 1-.132.162l-.895.519a.106.106 0 0 1-.066.024.106.106 0 0 1-.066-.024.229.229 0 0 1 0-.173v-6.818a.486.486 0 0 1 0-.233.366.366 0 0 1 .133-.163l.792-.457H39a.544.544 0 0 1 .092.112l1.118 2.286 1.108-3.566a1.21 1.21 0 0 1 .091-.224.459.459 0 0 1 .203-.234l.793-.457a.088.088 0 0 1 .066-.028.088.088 0 0 1 .066.028.193.193 0 0 1 0 .163v6.827a.487.487 0 0 1 0 .234.441.441 0 0 1-.132.163l-.894.518a.128.128 0 0 1-.066.019.128.128 0 0 1-.066-.019.227.227 0 0 1 0-.173v-3.505l-.65 2.113c-.026.08-.056.158-.092.234a.41.41 0 0 1-.163.183l-.437.243c-.122.041-.173.051-.213.011Zm7.439-4.115h.122a.202.202 0 0 1 .06.162v1.169a.463.463 0 0 1-.06.233.305.305 0 0 1-.122.163l-3.181 1.829a.1.1 0 0 1-.066.024.1.1 0 0 1-.066-.024.266.266 0 0 1 0-.173v-6.827a.603.603 0 0 1 0-.224.372.372 0 0 1 .132-.163l.894-.518a.093.093 0 0 1 .03-.021.11.11 0 0 1 .036-.007.11.11 0 0 1 .036.007.093.093 0 0 1 .03.021.207.207 0 0 1 .061.163v5.425l2.094-1.239Z"/><path fill="#4CAF4F" d="m45.068 209.21-21.485 12.375a1.176 1.176 0 0 0-.538.924v11.989a1.178 1.178 0 0 0 .538.925l2.124 1.198a1.19 1.19 0 0 0 1.017 0l21.545-12.374a1.23 1.23 0 0 0 .529-.925v-11.989a1.178 1.178 0 0 0-.54-.924l-2.113-1.199a1.187 1.187 0 0 0-1.077 0Z"/><path fill="#103E13" d="m45.068 209.21-21.485 12.375a1.176 1.176 0 0 0-.538.924v11.989a1.178 1.178 0 0 0 .538.925l2.124 1.198a1.19 1.19 0 0 0 1.017 0l21.545-12.374a1.23 1.23 0 0 0 .529-.925v-11.989a1.178 1.178 0 0 0-.54-.924l-2.113-1.199a1.187 1.187 0 0 0-1.077 0Z" opacity=".4"/><path fill="#4CAF4F" d="M48.787 211.231c0-.264-.254-.365-.529-.213l-21.484 12.375a1.225 1.225 0 0 0-.376.406l-3.192-1.839c.09-.153.215-.282.366-.375l21.495-12.375a1.213 1.213 0 0 1 1.077 0l2.114 1.209a1.14 1.14 0 0 1 .529.812Z"/><path fill="#4CAF4F" d="m48.269 211.018-21.495 12.375a1.182 1.182 0 0 0-.528.925v12.019c0 .345.234.477.528.315l21.495-12.405a1.2 1.2 0 0 0 .529-.925v-11.989c0-.345-.184-.477-.529-.315Z"/><path fill="#103E13" d="m48.269 211.018-21.495 12.375a1.182 1.182 0 0 0-.528.925v12.019c0 .345.234.477.528.315l21.495-12.405a1.2 1.2 0 0 0 .529-.925v-11.989c0-.345-.184-.477-.529-.315Z" opacity=".2"/><path fill="#F5F7FA" d="M31.968 226.228v1.788c.009.144.029.286.06.427.03.11.082.214.153.304a.42.42 0 0 0 .264.122.787.787 0 0 0 .386-.132 1.47 1.47 0 0 0 .387-.305c.094-.107.18-.223.254-.345.058-.114.106-.233.142-.356 0-.121.061-.223.081-.325.016-.093.04-.185.072-.274a.357.357 0 0 1 .162-.163l.894-.518a.094.094 0 0 1 .056-.019c.02 0 .04.007.056.019v.132a3.987 3.987 0 0 1-.173 1.118 5.32 5.32 0 0 1-.447 1.087 5.08 5.08 0 0 1-.68.935 3.171 3.171 0 0 1-.844.691c-.261.17-.563.269-.874.284a1.02 1.02 0 0 1-.66-.233 1.48 1.48 0 0 1-.428-.671 3.708 3.708 0 0 1-.172-1.016v-1.88c.013-.404.07-.807.172-1.199.126-.4.297-.785.508-1.148.177-.365.4-.706.661-1.016a3.57 3.57 0 0 1 .884-.741c.256-.157.545-.251.844-.275.239-.023.478.034.68.163.204.136.36.331.448.559.12.289.18.601.173.914a.437.437 0 0 1 0 .193.365.365 0 0 1-.112.132l-.894.518h-.163a.542.542 0 0 1-.071-.193c0-.071 0-.152-.081-.233a.372.372 0 0 0-.143-.183.49.49 0 0 0-.254-.061.95.95 0 0 0-.386.132 1.52 1.52 0 0 0-.386.325 2.275 2.275 0 0 0-.264.427 3.26 3.26 0 0 0-.153.477 4.157 4.157 0 0 0-.152.539Zm6.301-1.402v1.737a.648.648 0 0 1 0 .234.362.362 0 0 1-.133.162l-.863.498a.1.1 0 0 1-.066.024.1.1 0 0 1-.066-.024.224.224 0 0 1 0-.173v-1.737l-1.017.61a.078.078 0 0 1-.03.02.09.09 0 0 1-.036.008.089.089 0 0 1-.036-.008.078.078 0 0 1-.03-.02.236.236 0 0 1 0-.163v-1.067a.597.597 0 0 1 0-.233.366.366 0 0 1 .132-.163l1.017-.61v-1.808a.511.511 0 0 1 0-.234.335.335 0 0 1 .132-.152l.863-.508a.12.12 0 0 1 .133 0 .27.27 0 0 1 0 .173v1.737l1.016-.61a.128.128 0 0 1 .066-.019.13.13 0 0 1 .066.019.225.225 0 0 1 .05.173v1.067a.491.491 0 0 1-.182.396l-1.016.671Zm4.553-2.632v1.748a.535.535 0 0 1-.061.233.387.387 0 0 1-.122.153l-.874.498a.095.095 0 0 1-.028.02.078.078 0 0 1-.033.007.078.078 0 0 1-.034-.007.095.095 0 0 1-.027-.02.207.207 0 0 1-.061-.163v-1.747l-1.017.619a.1.1 0 0 1-.132 0 .223.223 0 0 1-.06-.172v-1.067a.538.538 0 0 1 .06-.234.285.285 0 0 1 .132-.152l1.017-.62v-1.737c0-.082.02-.163.06-.234a.356.356 0 0 1 .123-.163l.874-.498a.094.094 0 0 1 .027-.02.077.077 0 0 1 .034-.007c.011 0 .023.002.033.007a.11.11 0 0 1 .028.02.207.207 0 0 1 .06.163v1.748l1.017-.61a.088.088 0 0 1 .066-.028.089.089 0 0 1 .066.028c.02.056.02.117 0 .173v1.016a.593.593 0 0 1 0 .223.365.365 0 0 1-.132.163l-1.016.66Z"/><path fill="#333" d="m282.048 68.27-17.796 10.28a1.427 1.427 0 0 0-.63 1.108V101.4c.011.22.075.433.187.622.111.19.267.349.453.465l2.521 1.443a1.449 1.449 0 0 0 1.28 0l17.796-10.292a1.412 1.412 0 0 0 .63-1.097V70.799a1.389 1.389 0 0 0-.64-1.097l-2.47-1.443a1.423 1.423 0 0 0-1.331.01Z"/><path fill="#333" d="M268.063 103.921a1.473 1.473 0 0 1-1.28 0l-2.521-1.443a1.354 1.354 0 0 1-.64-1.087V79.649c.01-.231.08-.455.203-.65l3.791 2.174c-.122.203-.193.426-.193.08v21.743c0 .925.264 1.138.64.925Z"/><path fill="#fff" d="M286.479 70.728c-.051-.325-.305-.437-.62-.254l-17.796 10.292a1.324 1.324 0 0 0-.447.468l-3.801-2.175c.111-.185.265-.341.447-.457l17.796-10.292a1.401 1.401 0 0 1 1.27 0l2.52 1.433a1.366 1.366 0 0 1 .631.985Z" opacity=".4"/><path fill="#37474F" d="M261.884 95.783c-.406-.244-3.445-1.951-3.536-2.032a.575.575 0 0 1-.188-.179.58.58 0 0 1-.073-.5.58.58 0 0 1 .128-.225l5.407-6.198 3.801 2.184-5.65 6.035a.6.6 0 0 0 .111.915Z"/><path fill="#fff" d="M261.884 95.783c-.406-.244-3.445-1.951-3.536-2.032a.575.575 0 0 1-.188-.179.58.58 0 0 1-.073-.5.58.58 0 0 1 .128-.225l5.407-6.198 3.801 2.184-5.65 6.035a.6.6 0 0 0 .111.915Z" opacity=".4"/><path fill="#37474F" d="m285.859 70.423-17.796 10.292a1.389 1.389 0 0 0-.64 1.098v7.04l-5.651 6.036a.574.574 0 0 0-.183.64.564.564 0 0 0 .549.376l5.285-.386v8.077c0 .406.285.569.64.366l17.796-10.293a1.403 1.403 0 0 0 .63-1.097V70.83c0-.447-.285-.61-.63-.407Z"/><path fill="#F5F7FA" d="m282.363 89.717-3.649-2.733 3.761-7.193a1.366 1.366 0 0 0-2.419-1.27l-3.557 6.797-3.252-2.459a1.368 1.368 0 0 0-1.513-.09 1.358 1.358 0 0 0-.63.833 1.359 1.359 0 0 0 .496 1.431l3.618 2.733-3.608 6.889a1.374 1.374 0 0 0 .58 1.85c.195.098.411.15.63.151a1.362 1.362 0 0 0 1.209-.731l3.395-6.482 3.262 2.459a1.371 1.371 0 0 0 1.911-.265 1.373 1.373 0 0 0-.234-1.92Z"/><path fill="#263238" d="M365.593 349.394a8.84 8.84 0 0 1 .935 4.603c-.072 1.392-.905 3.2-.529 6.34.376 3.139 1.098 4.135 1.433 6.35a7.802 7.802 0 0 1-1.23 5.903c-1.301 2.113-4.166 3.789-9.837 3.586-4.574-.162-6.423-2.509-6.525-5.202l15.753-21.58Z"/><path fill="#37474F" d="M364.292 342.912a10.9 10.9 0 0 1 .274 1.778c.173 1.067.488 2.032.742 3.119.071.275.132.549.193.823.437 2.103 0 4.278 0 6.421.176 2.533.622 5.04 1.331 7.478 1.017 4.45 1.189 7.427-2.703 10.506-2.033 1.625-4.299 1.676-6.901 1.747-2 .07-3.982-.408-5.732-1.382-1.666-1.229-1.646-2.265-1.656-2.661-.153-4.725 1.555-10.221 1.9-14.936.129-1.269.156-2.546.082-3.82-.163-1.565-.702-3.119-.874-4.694a2.725 2.725 0 0 1 .213-1.737 2.784 2.784 0 0 1 2.104-.945 103.25 103.25 0 0 1 6.23-.63c.49-.093.997.009 1.412.284.407.366.417 1.016.529 1.514.112.498.498 1.138 1.016 1.016a.91.91 0 0 0 .63-.792c.051-.346.204-3.048.193-3.444.041.02.773-.092 1.017.355Z"/><path fill="#263238" d="M295.468 358.589a3.491 3.491 0 0 0 0 2.601c.335.772 4.208 3.17 9.563 3.048a22.366 22.366 0 0 0 11.18-3.414c2.083-1.27 4.217-1.432 6.87-1.483 2.652-.051 5.762-1.016 6.667-2.205a6.361 6.361 0 0 0 0-3.566l-34.28 5.019Z"/><path fill="#37474F" d="M314.859 342.77c-.205.382-.388.775-.549 1.178a9.42 9.42 0 0 1-2.947 3.668 30.488 30.488 0 0 1-5.915 3.19c-1.321.59-2.703.752-4.065 1.22a22.648 22.648 0 0 0-4.34 1.91c-2.154 1.321-2.561 4.866-.233 6.37 2.032 1.29 7.388 2.825 13.14 1.443 3.141-.752 6.708-3.932 10.793-4.064 2.592-.092 7.521-.62 9.269-2.52.64-2.835-.061-3.637-.64-6.096-.31-1.36-.474-2.75-.488-4.145 0-.732.488-2.835-1.016-3.048l-.153 1.575s-.294.528-1.9.812c-.519.092-.925.773-1.199 1.392-.275.62-.448 1.098-1.017 1.087a1.014 1.014 0 0 1-.803-.629 7.367 7.367 0 0 1-.294-1.016 4.076 4.076 0 0 0-2.429-2.408 12.311 12.311 0 0 0-2.846-.6c-.732-.112-1.341-.427-2.033.203a2.27 2.27 0 0 0-.335.478Z"/><path fill="#455A64" d="M356.558 221.926c1.016 15.515 1.555 24.547 4.329 66.884a110.706 110.706 0 0 1 3.872 22.189c.549 9.368 1.88 37.593 1.88 37.593s-7.551 6.197-16.26 3.332c0 0-7.907-41.494-10.672-54.437-2.642-12.426-4.675-26.01-4.675-26.01l-1.961 17.333s.346 7.711.102 19.223c-.122 6.157-3.049 39.482-3.049 39.482s-10.6 4.815-17.755-1.372c0 0-.518-54.041-.63-59.609-.122-6.36 1.016-70.318 1.016-70.318l43.803 5.71Z"/><path fill="#37474F" d="m334.992 271.487-5.417-28.377s-8.374-.732-12.998-5.405c0 0 .823 4.582 11.352 7.325l5.234 26.132-.092 17.648 1.921-17.323Zm31.403 72.014a17.174 17.174 0 0 1-11.616 4.186s7.216-1.077 11.545-5.832l.071 1.646Zm-35.936.082s-7.388 2.58-13.618.609c0 0 4.807 3.231 13.506.579l.112-1.188Z"/><path fill="#E8F5E9" d="M252.53 164.197a1.756 1.756 0 0 0-.305-.671 3.04 3.04 0 0 1 .061-3.048c.179-.223.33-.469.447-.731.203-.559-.051-1.189 0-1.788.183-2.672 5.02-1.504 6.555-1.016.447.152 3.049.823 4.065 1.178a13.766 13.766 0 0 1 .427-4.358c.691-2.774 2.978-2.49 3.11-.793.126 1.536.412 3.055.854 4.531.284 1.088 1.016 2.165 1.432 3.77.6 2.032.448 3.17 2.48 5.08 3.049 2.875 18.7 13.482 18.7 13.482 3.903-2.509 19.005-11.796 24.666-14.864 5.477-2.977 8.272-.579 8.272-.579l-4.776 17.587s-18.832 9.713-25.621 12.68c-4.736 2.032-6.83.894-12.053-3.759-4.147-3.922-9.615-9.592-15.519-14.814-2.358-2.093-4.065-3.16-5.732-3.241-.63 0-1.26-.071-1.88-.132-1.403-.163-3.049-.508-3.73-1.9-.234-.467-.346-1.016-.539-1.483-.295-.752-.762-1.423-1.016-2.175a3.041 3.041 0 0 1-.203-1.595c0-.437.366-.873.305-1.361Z"/><path fill="#455A64" d="M324.29 163.039c-4.817 0-6.687 0-12.805 3.474-6.118 3.475-18.05 11.369-18.05 11.369s5.346 2.977 6.413 13.544l19.31-9.063 5.132-19.324Z"/><path fill="#C8E6C9" d="M261.493 159.737c1.596.386 2.094 1.392 2.206 3.637.061 1.331.62 3.759 2.134 4.643a3.464 3.464 0 0 1-1.941-.681c-.732-.66-.925-.721-1.281-.294-.263.286-.59.506-.955.64a1.72 1.72 0 0 1 .295 2.032c-.62 1.199-3.74 1.432-6.383.284 0 0 4.238 1.016 5.082-.365.843-1.382-1.433-2.886-3.049-3.221 0 0 4.065.681 4.593-.671.529-1.351-1.199-2.235-3.597-2.672 0 0 3.354.376 3.841-.792a2.028 2.028 0 0 0-.945-2.54Zm28.822 20.127a12.576 12.576 0 0 1 4.696 5.791s.335-4.46-3.334-6.655l-1.362.864Z"/><path fill="#4CAF4F" d="M312.176 180.412c.6-11.958 5.417-16.784 12.114-17.373l15.052-1.016c4.065.945 14.634 2.977 14.634 2.977 4.381 1.31 7.46 12.73 6.433 19.233-1.026 6.502-3.17 11.46-3.77 22.402.173 10.364.325 12.416.325 16.48-9.36 5.944-34.503 7.183-44.392 1.219 0 0-.172-10.018-.376-16.398-.345-10.942-.223-23.409-.02-27.524Z"/><path fill="#37474F" d="M316.129 129.683a3.874 3.874 0 0 0-1.951 3.444 5.075 5.075 0 0 0 .854 2.937 6.501 6.501 0 0 0 3.455 2.255c.589.141 1.164.335 1.718.579.69.492 1.336 1.043 1.931 1.646.925.712 1.839 1.443 2.784 2.134a56.993 56.993 0 0 0 5.864 3.84 41.88 41.88 0 0 0 6.098 2.866c2.226.823 4.065.101 6.443.315l-.345 6.441s.793-1.483 1.697-3.251c.783-1.524 4.065-9.287 4.065-9.287 1.281-3.048 2.907-6.238 2.714-9.641-.163-2.754-.712-5.172-2.805-6.34-.173-3.17-.894-4.715-3.12-6.411a12.303 12.303 0 0 0-5.498-2.032 22.385 22.385 0 0 0-6.677.233c-3.293.529-6.586 1.372-9.919 1.199a15.851 15.851 0 0 0-5.326.336 5.393 5.393 0 0 0-3.73 5.273c-.071 1.209.895 3.2 1.748 3.464Z"/><path fill="#E8F5E9" d="M336.984 130.506c0 2.032 1.87 4.907 4.715 7.387a14.009 14.009 0 0 0 .153 5.669c.175.578.442 1.123.793 1.615a1.633 1.633 0 0 0 1.189.752c.66 0 .924-.345 1.128-.863.3-.657.639-1.295 1.016-1.911a4.64 4.64 0 0 1 .579-.731c1.017-.925 3.954-2.032 5.326 1.097 1.372 3.13-1.2 7.559-3.578 8.22-4.065 1.148-4.99-1.646-4.99-1.646l.071 13.553c-1.148 3.434-7.51 6.777-12.632 6.096-5.122-.68-3.496-3.769-1.413-5.862l-.264-4.704a20.201 20.201 0 0 1-5.468-.203c-2.124-.407-3.872-2.398-4.756-5.639a49.39 49.39 0 0 1-.61-18.817c.773-3.82 1.718-5.466 2.175-5.913 0 .833 1.596 3.384 5.732 3.953 4.37.629 7.683-.752 10.834-2.053Z"/><path fill="#C8E6C9" d="M329.057 159.198c3.78-.345 6.85-.863 8.984-2.032 1.565-.823 2.916-3.393 3.323-4.308 0 0-.102 3.516-2.205 5.466-2.968 2.754-9.991 2.754-9.991 2.754l-.111-1.88Z"/><path fill="#263238" d="M331.038 141.946a1.378 1.378 0 0 0 .843 1.255 1.379 1.379 0 0 0 1.485-.282 1.365 1.365 0 0 0-.158-2.1 1.37 1.37 0 0 0-.747-.254 1.395 1.395 0 0 0-.997.396 1.386 1.386 0 0 0-.426.985Zm.498-4.48 3.324 1.371a1.876 1.876 0 0 0-1.017-2.397 1.75 1.75 0 0 0-2.307 1.026Z"/><path fill="#388E3B" d="m332.837 149.343-5.081 2.032a2.673 2.673 0 0 0 3.526 1.585 2.852 2.852 0 0 0 1.555-3.617Z"/><path fill="#C8E6C9" d="M329.88 152.909a2.152 2.152 0 0 0 0 .254c.477.077.966.021 1.413-.162a2.813 2.813 0 0 0 1.707-2.622 2.53 2.53 0 0 0-.549-.061 2.594 2.594 0 0 0-2.571 2.591Z"/><path fill="#263238" d="m319.097 138.756 3.283-1.27a1.69 1.69 0 0 0-1.558-1.134 1.695 1.695 0 0 0-.668.118 1.788 1.788 0 0 0-1.057 2.286Zm.844 2.896a1.392 1.392 0 0 0 1.331 1.473 1.431 1.431 0 0 0 1.164-2.389 1.434 1.434 0 0 0-2.495.916Z"/><path fill="#C8E6C9" d="m327.238 148.672-5.062-.955 4.777-8.087.285 9.042Z"/><path fill="#E8F5E9" d="M354.85 165.243c6.332 1.098 10.163 3.13 11.789 8.128 2.307 7.112 8.761 27.26 10.092 34.423.813 4.399 2.084 7.183-1.646 10.078a264.304 264.304 0 0 1-27.786 17.577c-8.455 4.43-21.22 5.304-21.22 5.304l9.258-5.598 1.647-3.14 24.747-21.915-9.35-27.615s-2.358-14.194 2.469-17.242Z"/><path fill="#C8E6C9" d="M361.731 210.1a14.106 14.106 0 0 1 6.504-1.565s-2.195-1.889-7.043 0l.539 1.565Z"/><path fill="#455A64" d="M353.976 165c2.897.538 6.098.853 9.045 2.722 2.948 1.87 3.486 4.136 5.753 11.116 2.266 6.979 4.939 17.272 4.939 17.272s-5.549 4.694-15.102 4.826c0 0-4.706-13.056-5.864-15.962-1.159-2.906-4.076-12.273 1.229-19.974Z"/><path fill="#4CAF4F" d="M343.773 227.718v.873a2.464 2.464 0 0 1-1.179 2.154l-23.07 14.001a2.502 2.502 0 0 1-2.449 0l-43.457-23.795a2.489 2.489 0 0 1-1.271-2.103v-.59l45.927 25.177 25.499-15.717Z"/><path fill="#fff" d="M343.773 227.718v.873a2.464 2.464 0 0 1-1.179 2.154l-23.07 14.001a2.502 2.502 0 0 1-2.449 0l-43.457-23.795a2.489 2.489 0 0 1-1.271-2.103v-.59l45.927 25.177 25.499-15.717Z" opacity=".5"/><path fill="#103E13" d="M343.773 227.718v.873a2.464 2.464 0 0 1-1.179 2.154l-23.07 14.001a2.502 2.502 0 0 1-2.449 0l-43.457-23.795a2.489 2.489 0 0 1-1.271-2.103v-.59l45.927 25.177 25.499-15.717Z" opacity=".1"/><path fill="#4CAF4F" d="m272.337 218.259 25.113-15.241a1.479 1.479 0 0 1 1.463 0l44.717 24.506a.326.326 0 0 1 0 .559l-25.356 15.393-45.937-25.217Z"/><path fill="#fff" d="m272.337 218.259 25.113-15.241a1.479 1.479 0 0 1 1.463 0l44.717 24.506a.326.326 0 0 1 0 .559l-25.356 15.393-45.937-25.217Z" opacity=".85"/><path fill="#4CAF4F" d="m318.05 241.047 13.547-8.219-40.225-22.047-13.618 8.179 40.296 22.087Z"/><path fill="#fff" d="m318.05 241.047 13.547-8.219-40.225-22.047-13.618 8.179 40.296 22.087Z" opacity=".6"/><path fill="#4CAF4F" d="m324.717 219.112-.254.152-6.636 4.034-12.115-6.645-.254-.132 6.891-4.186 12.368 6.777Z"/><path fill="#4CAF4F" d="m324.463 219.264-6.636 4.034-12.115-6.645 6.647-4.023 12.104 6.634Z"/><path fill="#fff" d="m324.463 219.264-6.636 4.034-12.115-6.645 6.647-4.023 12.104 6.634Z" opacity=".6"/><path fill="#4CAF4F" d="M318.264 243.435v1.626a2.39 2.39 0 0 1-1.23-.295l-43.416-23.815a2.489 2.489 0 0 1-1.271-2.103v-.59l45.917 25.177Z"/><path fill="#fff" d="M318.264 243.435v1.626a2.39 2.39 0 0 1-1.23-.295l-43.416-23.815a2.489 2.489 0 0 1-1.271-2.103v-.59l45.917 25.177Z" opacity=".03"/><path fill="#103E13" d="M318.264 243.435v1.626a2.39 2.39 0 0 1-1.23-.295l-43.416-23.815a2.489 2.489 0 0 1-1.271-2.103v-.59l45.917 25.177Z" opacity=".2"/><path fill="#4CAF4F" d="M317.583 243.811a2.886 2.886 0 0 1-2.511-.142l-43.253-23.714a2.936 2.936 0 0 1-1.464-2.032l-5.284-27.777a2.544 2.544 0 0 1 0-.478 2.89 2.89 0 0 1 .813-2.083l44.9 24.649a2.115 2.115 0 0 1 1.077 1.473l5.722 30.104Z"/><path fill="#fff" d="M317.583 243.811a2.886 2.886 0 0 1-2.511-.142l-43.253-23.714a2.936 2.936 0 0 1-1.464-2.032l-5.284-27.777a2.544 2.544 0 0 1 0-.478 2.89 2.89 0 0 1 .813-2.083l44.9 24.649a2.115 2.115 0 0 1 1.077 1.473l5.722 30.104Z" opacity=".4"/><path fill="#4CAF4F" d="m318.264 243.435-.285.173a2.956 2.956 0 0 1-.396.203l-5.722-30.064a2.117 2.117 0 0 0-1.077-1.473l-44.951-24.648c.17-.183.365-.34.579-.467l45.053 24.689a2.18 2.18 0 0 1 1.077 1.483l5.722 30.104Z"/><path fill="#fff" d="m318.264 243.435-.285.173a2.956 2.956 0 0 1-.396.203l-5.722-30.064a2.117 2.117 0 0 0-1.077-1.473l-44.951-24.648c.17-.183.365-.34.579-.467l45.053 24.689a2.18 2.18 0 0 1 1.077 1.483l5.722 30.104Z" opacity=".6"/><path fill="#4CAF4F" d="m311.444 212.833.671-.406c.212.263.359.573.427.904l5.722 30.104-.285.173a2.956 2.956 0 0 1-.396.203l-5.722-30.064a2.135 2.135 0 0 0-.417-.914Z"/><path fill="#fff" d="m311.444 212.833.671-.406c.212.263.359.573.427.904l5.722 30.104-.285.173a2.956 2.956 0 0 1-.396.203l-5.722-30.064a2.135 2.135 0 0 0-.417-.914Z" opacity=".5"/><path fill="#103E13" d="m311.444 212.833.671-.406c.212.263.359.573.427.904l5.722 30.104-.285.173a2.956 2.956 0 0 1-.396.203l-5.722-30.064a2.135 2.135 0 0 0-.417-.914Z" opacity=".1"/><path fill="#455A64" d="M292.958 218.604a9.45 9.45 0 0 0-4.431-5.446c-2.084-1.138-3.496-.569-3.141 1.301.356 1.869 2.338 4.287 4.432 5.435 2.093 1.148 3.496.569 3.14-1.29Z"/><path fill="#E8F5E9" d="M344.616 225.259c-2.419 1.697-5.681.325-8.892.711-3.212.386-5.956 1.179-8.537 1.107-2.582-.071-3.842.447-2.033 2.51 1.809 2.062 6.982.874 8.385 1.504a3.052 3.052 0 0 1 1.483 2.219 3.048 3.048 0 0 1-.833 2.536c-1.514 1.757 8.618-1.636 9.97-3.719 1.352-2.083 2.286-6.604.457-6.868Z"/></svg>